<?xml version="1.0" encoding="UTF-8"?>
<svg xmlns="http://www.w3.org/2000/svg" xmlns:xlink="http://www.w3.org/1999/xlink" width="100pt" height="100pt" viewBox="0 0 100 100" version="1.1">
<g id="surface6182">
<path style=" stroke:none;fill-rule:nonzero;fill:rgb(47.058824%,80%,82.745098%);fill-opacity:1;" d="M 91 25 L 91 77 C 91 79.210938 89.210938 81 87 81 L 13 81 C 11 81 9.339844 79.53125 9.050781 77.609375 C 9.019531 77.410156 9 77.210938 9 77 L 9 25 C 9 22.789062 10.789062 21 13 21 L 87 21 C 89.210938 21 91 22.789062 91 25 Z M 91 25 "/>
<path style=" stroke:none;fill-rule:nonzero;fill:rgb(47.058824%,74.509804%,82.352941%);fill-opacity:1;" d="M 91 25 L 91 43.878906 C 85.421875 58.910156 75.449219 71.800781 62.640625 81 L 13 81 C 11 81 9.339844 79.53125 9.050781 77.609375 C 9.019531 77.410156 9 77.210938 9 77 L 9 25 C 9 22.789062 10.789062 21 13 21 L 87 21 C 89.210938 21 91 22.789062 91 25 Z M 91 25 "/>
<path style=" stroke:none;fill-rule:nonzero;fill:rgb(47.058824%,68.627451%,82.352941%);fill-opacity:1;" d="M 77.800781 21 C 75.25 52.898438 48.558594 78 16 78 C 13.648438 78 11.328125 77.871094 9.050781 77.609375 C 9.019531 77.410156 9 77.210938 9 77 L 9 25 C 9 22.789062 10.789062 21 13 21 Z M 77.800781 21 "/>
<path style=" stroke:none;fill-rule:nonzero;fill:rgb(47.058824%,63.137255%,81.960784%);fill-opacity:1;" d="M 57.699219 21 C 55.230469 41.839844 37.511719 58 16 58 C 13.621094 58 11.28125 57.800781 9 57.421875 L 9 25 C 9 22.789062 10.789062 21 13 21 Z M 57.699219 21 "/>
<path style=" stroke:none;fill-rule:nonzero;fill:rgb(12.156863%,12.941176%,16.862745%);fill-opacity:1;" d="M 87 82 L 13 82 C 10.242188 82 8 79.757812 8 77 L 8 25 C 8 22.242188 10.242188 20 13 20 L 70.398438 20 C 70.953125 20 71.398438 20.449219 71.398438 21 C 71.398438 21.550781 70.953125 22 70.398438 22 L 13 22 C 11.347656 22 10 23.347656 10 25 L 10 77 C 10 78.652344 11.347656 80 13 80 L 87 80 C 88.652344 80 90 78.652344 90 77 L 90 25 C 90 23.347656 88.652344 22 87 22 L 81.570312 22 C 81.015625 22 80.570312 21.550781 80.570312 21 C 80.570312 20.449219 81.015625 20 81.570312 20 L 87 20 C 89.757812 20 92 22.242188 92 25 L 92 77 C 92 79.757812 89.757812 82 87 82 Z M 87 82 "/>
<path style=" stroke:none;fill-rule:nonzero;fill:rgb(12.156863%,12.941176%,16.862745%);fill-opacity:1;" d="M 61.5 25 L 56.5 25 C 56.222656 25 56 24.777344 56 24.5 C 56 24.222656 56.222656 24 56.5 24 L 61.5 24 C 61.777344 24 62 24.222656 62 24.5 C 62 24.777344 61.777344 25 61.5 25 Z M 61.5 25 "/>
<path style=" stroke:none;fill-rule:nonzero;fill:rgb(12.156863%,12.941176%,16.862745%);fill-opacity:1;" d="M 12.5 53 C 12.222656 53 12 52.777344 12 52.5 L 12 26.5 C 12 25.121094 13.121094 24 14.5 24 L 53.5 24 C 53.777344 24 54 24.222656 54 24.5 C 54 24.777344 53.777344 25 53.5 25 L 14.5 25 C 13.671875 25 13 25.671875 13 26.5 L 13 52.5 C 13 52.777344 12.777344 53 12.5 53 Z M 12.5 53 "/>
<path style=" stroke:none;fill-rule:nonzero;fill:rgb(12.156863%,12.941176%,16.862745%);fill-opacity:1;" d="M 12.5 69 C 12.222656 69 12 68.777344 12 68.5 L 12 57.5 C 12 57.222656 12.222656 57 12.5 57 C 12.777344 57 13 57.222656 13 57.5 L 13 68.5 C 13 68.777344 12.777344 69 12.5 69 Z M 12.5 69 "/>
<path style=" stroke:none;fill-rule:nonzero;fill:rgb(12.156863%,12.941176%,16.862745%);fill-opacity:1;" d="M 72.5 78 L 48.5 78 C 48.222656 78 48 77.777344 48 77.5 C 48 77.222656 48.222656 77 48.5 77 L 72.5 77 C 72.777344 77 73 77.222656 73 77.5 C 73 77.777344 72.777344 78 72.5 78 Z M 72.5 78 "/>
<path style=" stroke:none;fill-rule:nonzero;fill:rgb(12.156863%,12.941176%,16.862745%);fill-opacity:1;" d="M 85.5 78 L 76.5 78 C 76.222656 78 76 77.777344 76 77.5 C 76 77.222656 76.222656 77 76.5 77 L 85.5 77 C 86.328125 77 87 76.328125 87 75.5 L 87 49.5 C 87 49.222656 87.222656 49 87.5 49 C 87.777344 49 88 49.222656 88 49.5 L 88 75.5 C 88 76.878906 86.878906 78 85.5 78 Z M 85.5 78 "/>
<path style=" stroke:none;fill-rule:nonzero;fill:rgb(12.156863%,12.941176%,16.862745%);fill-opacity:1;" d="M 87.5 45 C 87.222656 45 87 44.777344 87 44.5 L 87 38.5 C 87 38.222656 87.222656 38 87.5 38 C 87.777344 38 88 38.222656 88 38.5 L 88 44.5 C 88 44.777344 87.777344 45 87.5 45 Z M 87.5 45 "/>
<path style=" stroke:none;fill-rule:nonzero;fill:rgb(12.156863%,12.941176%,16.862745%);fill-opacity:1;" d="M 87.5 36 C 87.222656 36 87 35.777344 87 35.5 L 87 33.5 C 87 33.222656 87.222656 33 87.5 33 C 87.777344 33 88 33.222656 88 33.5 L 88 35.5 C 88 35.777344 87.777344 36 87.5 36 Z M 87.5 36 "/>
<path style=" stroke:none;fill-rule:nonzero;fill:rgb(100%,100%,100%);fill-opacity:1;" d="M 18 46.316406 C 18 44.476562 22.035156 38.226562 28.902344 38.226562 C 39.949219 38.226562 41.621094 52.605469 48.90625 52.605469 C 54.488281 52.605469 56.121094 49.011719 57.089844 49.011719 C 57.550781 49.011719 58 49.273438 58 49.644531 C 58 51.21875 53.40625 58 47.089844 58 C 36.183594 58 36.015625 43.617188 27.085938 43.617188 C 22.300781 43.617188 20.105469 47.214844 18.902344 47.214844 C 18.105469 47.214844 18 46.710938 18 46.316406 Z M 18 46.316406 "/>
<path style=" stroke:none;fill-rule:nonzero;fill:rgb(39.607843%,39.607843%,40%);fill-opacity:1;" d="M 85.148438 13.46875 C 85.621094 13.761719 85.761719 14.378906 85.460938 14.851562 L 67 44 L 59 39 L 77.46875 9.839844 C 77.761719 9.378906 78.378906 9.238281 78.839844 9.53125 Z M 85.148438 13.46875 "/>
<path style=" stroke:none;fill-rule:nonzero;fill:rgb(89.019608%,88.627451%,89.019608%);fill-opacity:1;" d="M 67 44 L 58 49 L 59 39 Z M 67 44 "/>
<path style=" stroke:none;fill-rule:nonzero;fill:rgb(12.156863%,12.941176%,16.862745%);fill-opacity:1;" d="M 58 50 C 57.808594 50 57.617188 49.945312 57.449219 49.835938 C 57.140625 49.628906 56.96875 49.269531 57.003906 48.898438 L 58.003906 38.898438 C 58.019531 38.746094 58.070312 38.597656 58.15625 38.464844 L 76.625 9.304688 C 77.210938 8.378906 78.441406 8.097656 79.371094 8.683594 L 85.679688 12.621094 C 86.132812 12.898438 86.449219 13.339844 86.566406 13.863281 C 86.6875 14.390625 86.59375 14.929688 86.304688 15.386719 L 67.84375 44.535156 C 67.753906 44.675781 67.632812 44.792969 67.484375 44.875 L 58.484375 49.875 C 58.335938 49.957031 58.167969 50 58 50 Z M 59.972656 39.335938 L 59.1875 47.199219 L 66.292969 43.25 L 84.613281 14.316406 L 78.308594 10.378906 Z M 67 44 L 67.011719 44 Z M 67 44 "/>
<path style=" stroke:none;fill-rule:nonzero;fill:rgb(12.156863%,12.941176%,16.862745%);fill-opacity:1;" d="M 67 45 C 66.816406 45 66.636719 44.949219 66.46875 44.847656 L 58.46875 39.847656 C 58.003906 39.554688 57.859375 38.9375 58.152344 38.46875 C 58.445312 38 59.0625 37.859375 59.53125 38.152344 L 67.53125 43.152344 C 68 43.445312 68.140625 44.0625 67.847656 44.53125 C 67.65625 44.832031 67.332031 45 67 45 Z M 67 45 "/>
<path style=" stroke:none;fill-rule:nonzero;fill:rgb(12.156863%,12.941176%,16.862745%);fill-opacity:1;" d="M 43 57.695312 C 42.933594 57.695312 42.867188 57.683594 42.804688 57.65625 C 39.535156 56.25 37.515625 53.355469 35.5625 50.558594 C 33.25 47.246094 31.066406 44.117188 27.085938 44.117188 C 24.070312 44.117188 22.105469 45.65625 20.808594 46.671875 C 20.035156 47.277344 19.476562 47.714844 18.902344 47.714844 C 18.011719 47.714844 17.5 47.203125 17.5 46.3125 C 17.5 44.242188 21.671875 37.722656 28.902344 37.722656 C 31.65625 37.722656 34.078125 38.578125 36.308594 40.335938 C 36.527344 40.503906 36.5625 40.820312 36.394531 41.035156 C 36.222656 41.253906 35.90625 41.289062 35.691406 41.121094 C 33.644531 39.507812 31.421875 38.722656 28.902344 38.722656 C 22.289062 38.722656 18.5 44.6875 18.5 46.3125 C 18.5 46.628906 18.550781 46.714844 18.902344 46.714844 C 19.132812 46.714844 19.695312 46.273438 20.191406 45.882812 C 21.601562 44.78125 23.726562 43.117188 27.085938 43.117188 C 31.589844 43.117188 34.023438 46.609375 36.382812 49.984375 C 38.253906 52.667969 40.191406 55.441406 43.199219 56.734375 C 43.453125 56.84375 43.570312 57.136719 43.460938 57.390625 C 43.378906 57.582031 43.191406 57.695312 43 57.695312 Z M 43 57.695312 "/>
<path style=" stroke:none;fill-rule:nonzero;fill:rgb(12.156863%,12.941176%,16.862745%);fill-opacity:1;" d="M 47.089844 58.5 C 46.335938 58.5 45.601562 58.433594 44.90625 58.300781 C 44.632812 58.246094 44.457031 57.984375 44.507812 57.714844 C 44.5625 57.441406 44.824219 57.269531 45.09375 57.316406 C 45.726562 57.4375 46.398438 57.5 47.089844 57.5 C 47.363281 57.5 47.589844 57.722656 47.589844 58 C 47.589844 58.277344 47.363281 58.5 47.089844 58.5 Z M 47.089844 58.5 "/>
<path style=" stroke:none;fill-rule:nonzero;fill:rgb(12.156863%,12.941176%,16.862745%);fill-opacity:1;" d="M 49 58.292969 C 48.769531 58.292969 48.5625 58.132812 48.511719 57.898438 C 48.453125 57.628906 48.625 57.363281 48.894531 57.304688 C 54.066406 56.1875 57.5 50.765625 57.5 49.644531 C 57.480469 49.617188 57.324219 49.511719 57.089844 49.511719 C 56.972656 49.535156 56.609375 49.863281 56.316406 50.132812 C 55.171875 51.171875 53.039062 53.105469 48.90625 53.105469 C 45.390625 53.105469 43.132812 50.054688 40.742188 46.824219 C 39.875 45.65625 38.980469 44.445312 37.992188 43.328125 C 37.808594 43.121094 37.828125 42.808594 38.035156 42.625 C 38.242188 42.441406 38.558594 42.457031 38.742188 42.664062 C 39.757812 43.8125 40.667969 45.039062 41.546875 46.230469 C 43.878906 49.382812 45.894531 52.105469 48.90625 52.105469 C 52.652344 52.105469 54.523438 50.40625 55.644531 49.390625 C 56.207031 48.878906 56.613281 48.511719 57.089844 48.511719 C 57.78125 48.511719 58.5 48.933594 58.5 49.644531 C 58.5 51.289062 54.707031 57.070312 49.105469 58.28125 C 49.070312 58.289062 49.035156 58.292969 49 58.292969 Z M 49 58.292969 "/>
</g>
</svg>
