<?xml version="1.0" encoding="UTF-8"?>
<svg xmlns="http://www.w3.org/2000/svg" xmlns:xlink="http://www.w3.org/1999/xlink" width="100pt" height="100pt" viewBox="0 0 100 100" version="1.1">
<g id="surface5706">
<path style=" stroke:none;fill-rule:nonzero;fill:rgb(33.72549%,37.254902%,63.137255%);fill-opacity:1;" d="M 59 72 C 55.605469 72 26.394531 72 23 72 C 18.582031 72 15 75.582031 15 80 C 15 84.417969 18.582031 88 23 88 C 26.394531 88 55.605469 88 59 88 C 63.417969 88 67 84.417969 67 80 C 67 75.582031 63.417969 72 59 72 Z M 59 72 "/>
<path style=" stroke:none;fill-rule:nonzero;fill:rgb(80.784314%,80%,74.509804%);fill-opacity:1;" d="M 38.5 80 C 38.5 81.933594 36.933594 83.5 35 83.5 C 33.066406 83.5 31.5 81.933594 31.5 80 C 31.5 78.066406 33.066406 76.5 35 76.5 C 36.933594 76.5 38.5 78.066406 38.5 80 Z M 38.5 80 "/>
<path style=" stroke:none;fill-rule:nonzero;fill:rgb(80.784314%,80%,74.509804%);fill-opacity:1;" d="M 26.5 80 C 26.5 81.933594 24.933594 83.5 23 83.5 C 21.066406 83.5 19.5 81.933594 19.5 80 C 19.5 78.066406 21.066406 76.5 23 76.5 C 24.933594 76.5 26.5 78.066406 26.5 80 Z M 26.5 80 "/>
<path style=" stroke:none;fill-rule:nonzero;fill:rgb(80.784314%,80%,74.509804%);fill-opacity:1;" d="M 50.5 80 C 50.5 81.933594 48.933594 83.5 47 83.5 C 45.066406 83.5 43.5 81.933594 43.5 80 C 43.5 78.066406 45.066406 76.5 47 76.5 C 48.933594 76.5 50.5 78.066406 50.5 80 Z M 50.5 80 "/>
<path style=" stroke:none;fill-rule:nonzero;fill:rgb(80.784314%,80%,74.509804%);fill-opacity:1;" d="M 62.5 80 C 62.5 81.933594 60.933594 83.5 59 83.5 C 57.066406 83.5 55.5 81.933594 55.5 80 C 55.5 78.066406 57.066406 76.5 59 76.5 C 60.933594 76.5 62.5 78.066406 62.5 80 Z M 62.5 80 "/>
<path style=" stroke:none;fill-rule:nonzero;fill:rgb(92.941176%,86.27451%,40.392157%);fill-opacity:1;" d="M 29 67 L 53 67 L 53 72 L 29 72 Z M 29 67 "/>
<path style=" stroke:none;fill-rule:nonzero;fill:rgb(97.647059%,90.196078%,36.078431%);fill-opacity:1;" d="M 35 49 L 19 49 C 16.789062 49 15 50.789062 15 53 L 15 63 C 15 65.210938 16.789062 67 19 67 L 63 67 C 65.210938 67 67 65.210938 67 63 L 67 57.390625 C 67 56.507812 66.609375 55.671875 65.9375 55.101562 L 54.839844 45.710938 C 54.296875 45.253906 53.609375 45 52.902344 45 L 39 45 C 36.789062 45 35 46.789062 35 49 Z M 35 49 "/>
<path style=" stroke:none;fill-rule:nonzero;fill:rgb(47.058824%,80.392157%,83.137255%);fill-opacity:1;" d="M 49 45 L 49 55.5 L 49.5 55.5 C 49.5 57.710938 51.289062 59.5 53.5 59.5 L 67 59.5 L 67 57.390625 C 67 56.507812 66.609375 55.671875 65.9375 55.101562 L 54.839844 45.710938 C 54.296875 45.253906 53.609375 45 52.902344 45 Z M 49 45 "/>
<path style=" stroke:none;fill-rule:nonzero;fill:rgb(47.058824%,63.137255%,81.960784%);fill-opacity:1;" d="M 83.5 56.5 L 74.5 56.5 L 74.5 63.5 L 83.5 63.5 C 84.605469 63.5 85.5 62.605469 85.5 61.5 L 85.5 58.5 C 85.5 57.394531 84.605469 56.5 83.5 56.5 Z M 83.5 56.5 "/>
<path style=" stroke:none;fill-rule:nonzero;fill:rgb(47.058824%,63.137255%,81.960784%);fill-opacity:1;" d="M 83.5 28.5 L 74.5 28.5 L 74.5 25.5 L 83.5 25.5 C 84.050781 25.5 84.5 25.949219 84.5 26.5 L 84.5 27.5 C 84.5 28.050781 84.050781 28.5 83.5 28.5 Z M 83.5 28.5 "/>
<path style=" stroke:none;fill-rule:nonzero;fill:rgb(92.941176%,86.27451%,40.392157%);fill-opacity:1;" d="M 81.5 10 C 81.277344 10 80.851562 10.085938 80.851562 10.085938 L 65.742188 13.203125 L 65.742188 13.222656 C 64.152344 13.75 63 15.230469 63 17 C 63 19.210938 64.789062 21 67 21 L 67 63 L 74 63 L 74 21 L 82.820312 14.613281 C 83.527344 14.171875 84 13.394531 84 12.5 C 84 11.117188 82.882812 10 81.5 10 Z M 81.5 10 "/>
<path style=" stroke:none;fill-rule:nonzero;fill:rgb(12.156863%,12.941176%,16.862745%);fill-opacity:1;" d="M 59 89 L 23 89 C 18.035156 89 14 84.960938 14 80 C 14 75.039062 18.035156 71 23 71 L 59 71 C 63.964844 71 68 75.039062 68 80 C 68 84.960938 63.964844 89 59 89 Z M 23 73 C 19.140625 73 16 76.140625 16 80 C 16 83.859375 19.140625 87 23 87 L 59 87 C 62.859375 87 66 83.859375 66 80 C 66 76.140625 62.859375 73 59 73 Z M 23 73 "/>
<path style=" stroke:none;fill-rule:nonzero;fill:rgb(12.156863%,12.941176%,16.862745%);fill-opacity:1;" d="M 35 84 C 32.792969 84 31 82.207031 31 80 C 31 77.792969 32.792969 76 35 76 C 37.207031 76 39 77.792969 39 80 C 39 82.207031 37.207031 84 35 84 Z M 35 77 C 33.347656 77 32 78.347656 32 80 C 32 81.652344 33.347656 83 35 83 C 36.652344 83 38 81.652344 38 80 C 38 78.347656 36.652344 77 35 77 Z M 35 77 "/>
<path style=" stroke:none;fill-rule:nonzero;fill:rgb(12.156863%,12.941176%,16.862745%);fill-opacity:1;" d="M 23 84 C 20.792969 84 19 82.207031 19 80 C 19 77.792969 20.792969 76 23 76 C 25.207031 76 27 77.792969 27 80 C 27 82.207031 25.207031 84 23 84 Z M 23 77 C 21.347656 77 20 78.347656 20 80 C 20 81.652344 21.347656 83 23 83 C 24.652344 83 26 81.652344 26 80 C 26 78.347656 24.652344 77 23 77 Z M 23 77 "/>
<path style=" stroke:none;fill-rule:nonzero;fill:rgb(12.156863%,12.941176%,16.862745%);fill-opacity:1;" d="M 47 84 C 44.792969 84 43 82.207031 43 80 C 43 77.792969 44.792969 76 47 76 C 49.207031 76 51 77.792969 51 80 C 51 82.207031 49.207031 84 47 84 Z M 47 77 C 45.347656 77 44 78.347656 44 80 C 44 81.652344 45.347656 83 47 83 C 48.652344 83 50 81.652344 50 80 C 50 78.347656 48.652344 77 47 77 Z M 47 77 "/>
<path style=" stroke:none;fill-rule:nonzero;fill:rgb(12.156863%,12.941176%,16.862745%);fill-opacity:1;" d="M 59 84 C 56.792969 84 55 82.207031 55 80 C 55 77.792969 56.792969 76 59 76 C 61.207031 76 63 77.792969 63 80 C 63 82.207031 61.207031 84 59 84 Z M 59 77 C 57.347656 77 56 78.347656 56 80 C 56 81.652344 57.347656 83 59 83 C 60.652344 83 62 81.652344 62 80 C 62 78.347656 60.652344 77 59 77 Z M 59 77 "/>
<path style=" stroke:none;fill-rule:nonzero;fill:rgb(12.156863%,12.941176%,16.862745%);fill-opacity:1;" d="M 29.5 54 L 19.5 54 C 19.222656 54 19 53.777344 19 53.5 C 19 53.222656 19.222656 53 19.5 53 L 29.5 53 C 29.777344 53 30 53.222656 30 53.5 C 30 53.777344 29.777344 54 29.5 54 Z M 29.5 54 "/>
<path style=" stroke:none;fill-rule:nonzero;fill:rgb(12.156863%,12.941176%,16.862745%);fill-opacity:1;" d="M 25.5 57 L 19.5 57 C 19.222656 57 19 56.777344 19 56.5 C 19 56.222656 19.222656 56 19.5 56 L 25.5 56 C 25.777344 56 26 56.222656 26 56.5 C 26 56.777344 25.777344 57 25.5 57 Z M 25.5 57 "/>
<path style=" stroke:none;fill-rule:nonzero;fill:rgb(12.156863%,12.941176%,16.862745%);fill-opacity:1;" d="M 29.5 60 L 19.5 60 C 19.222656 60 19 59.777344 19 59.5 C 19 59.222656 19.222656 59 19.5 59 L 29.5 59 C 29.777344 59 30 59.222656 30 59.5 C 30 59.777344 29.777344 60 29.5 60 Z M 29.5 60 "/>
<path style=" stroke:none;fill-rule:nonzero;fill:rgb(12.156863%,12.941176%,16.862745%);fill-opacity:1;" d="M 29.5 63 L 24.5 63 C 24.222656 63 24 62.777344 24 62.5 C 24 62.222656 24.222656 62 24.5 62 L 29.5 62 C 29.777344 62 30 62.222656 30 62.5 C 30 62.777344 29.777344 63 29.5 63 Z M 29.5 63 "/>
<path style=" stroke:none;fill-rule:nonzero;fill:rgb(12.156863%,12.941176%,16.862745%);fill-opacity:1;" d="M 29.5 57 L 28.5 57 C 28.222656 57 28 56.777344 28 56.5 C 28 56.222656 28.222656 56 28.5 56 L 29.5 56 C 29.777344 56 30 56.222656 30 56.5 C 30 56.777344 29.777344 57 29.5 57 Z M 29.5 57 "/>
<path style=" stroke:none;fill-rule:nonzero;fill:rgb(12.156863%,12.941176%,16.862745%);fill-opacity:1;" d="M 21.5 63 L 19.5 63 C 19.222656 63 19 62.777344 19 62.5 C 19 62.222656 19.222656 62 19.5 62 L 21.5 62 C 21.777344 62 22 62.222656 22 62.5 C 22 62.777344 21.777344 63 21.5 63 Z M 21.5 63 "/>
<path style=" stroke:none;fill-rule:nonzero;fill:rgb(12.156863%,12.941176%,16.862745%);fill-opacity:1;" d="M 63 68 L 19 68 C 16.242188 68 14 65.757812 14 63 L 14 53 C 14 50.242188 16.242188 48 19 48 L 34.101562 48 C 34.566406 45.722656 36.585938 44 39 44 L 52.902344 44 C 53.84375 44 54.761719 44.335938 55.484375 44.945312 L 66.582031 54.339844 C 67.484375 55.101562 68 56.214844 68 57.390625 L 68 63 C 68 65.757812 65.757812 68 63 68 Z M 19 50 C 17.347656 50 16 51.347656 16 53 L 16 63 C 16 64.652344 17.347656 66 19 66 L 63 66 C 64.652344 66 66 64.652344 66 63 L 66 57.390625 C 66 56.804688 65.742188 56.246094 65.289062 55.863281 L 54.191406 46.472656 C 53.832031 46.167969 53.371094 46 52.902344 46 L 39 46 C 37.347656 46 36 47.347656 36 49 C 36 49.550781 35.554688 50 35 50 Z M 19 50 "/>
<path style=" stroke:none;fill-rule:nonzero;fill:rgb(12.156863%,12.941176%,16.862745%);fill-opacity:1;" d="M 67.5 60 L 53.5 60 C 51.019531 60 49 57.980469 49 55.5 C 49 55.222656 49.222656 55 49.5 55 C 49.777344 55 50 55.222656 50 55.5 C 50 57.429688 51.570312 59 53.5 59 L 67.5 59 C 67.777344 59 68 59.222656 68 59.5 C 68 59.777344 67.777344 60 67.5 60 Z M 67.5 60 "/>
<path style=" stroke:none;fill-rule:nonzero;fill:rgb(12.156863%,12.941176%,16.862745%);fill-opacity:1;" d="M 82 87 C 81.445312 87 81 86.550781 81 86 L 81 64 C 81 63.449219 81.445312 63 82 63 C 82.554688 63 83 63.449219 83 64 L 83 86 C 83 86.550781 82.554688 87 82 87 Z M 82 87 "/>
<path style=" stroke:none;fill-rule:nonzero;fill:rgb(12.156863%,12.941176%,16.862745%);fill-opacity:1;" d="M 82 57 C 81.445312 57 81 56.550781 81 56 L 81 29 C 81 28.449219 81.445312 28 82 28 C 82.554688 28 83 28.449219 83 29 L 83 56 C 83 56.550781 82.554688 57 82 57 Z M 82 57 "/>
<path style=" stroke:none;fill-rule:nonzero;fill:rgb(12.156863%,12.941176%,16.862745%);fill-opacity:1;" d="M 79 84 C 78.582031 84 78.191406 83.734375 78.050781 83.316406 C 77.878906 82.792969 78.160156 82.226562 78.683594 82.050781 L 84.683594 80.050781 C 85.214844 79.875 85.773438 80.160156 85.949219 80.683594 C 86.125 81.207031 85.839844 81.773438 85.316406 81.949219 L 79.316406 83.949219 C 79.210938 83.984375 79.105469 84 79 84 Z M 79 84 "/>
<path style=" stroke:none;fill-rule:nonzero;fill:rgb(12.156863%,12.941176%,16.862745%);fill-opacity:1;" d="M 79 78 C 78.582031 78 78.191406 77.734375 78.050781 77.316406 C 77.878906 76.792969 78.160156 76.226562 78.683594 76.050781 L 84.683594 74.050781 C 85.214844 73.875 85.773438 74.160156 85.949219 74.683594 C 86.125 75.207031 85.839844 75.773438 85.316406 75.949219 L 79.316406 77.949219 C 79.210938 77.984375 79.105469 78 79 78 Z M 79 78 "/>
<path style=" stroke:none;fill-rule:nonzero;fill:rgb(12.156863%,12.941176%,16.862745%);fill-opacity:1;" d="M 79 72 C 78.582031 72 78.191406 71.734375 78.050781 71.316406 C 77.878906 70.792969 78.160156 70.226562 78.683594 70.050781 L 84.683594 68.050781 C 85.214844 67.875 85.773438 68.160156 85.949219 68.683594 C 86.125 69.207031 85.839844 69.773438 85.316406 69.949219 L 79.316406 71.949219 C 79.210938 71.984375 79.105469 72 79 72 Z M 79 72 "/>
<path style=" stroke:none;fill-rule:nonzero;fill:rgb(12.156863%,12.941176%,16.862745%);fill-opacity:1;" d="M 83.5 64 L 74 64 L 74 56 L 83.5 56 C 84.878906 56 86 57.121094 86 58.5 L 86 61.5 C 86 62.878906 84.878906 64 83.5 64 Z M 75 63 L 83.5 63 C 84.328125 63 85 62.328125 85 61.5 L 85 58.5 C 85 57.671875 84.328125 57 83.5 57 L 75 57 Z M 75 63 "/>
<path style=" stroke:none;fill-rule:nonzero;fill:rgb(12.156863%,12.941176%,16.862745%);fill-opacity:1;" d="M 83.5 29 L 74.5 29 C 74.222656 29 74 28.777344 74 28.5 L 74 25.5 C 74 25.222656 74.222656 25 74.5 25 L 83.5 25 C 84.328125 25 85 25.671875 85 26.5 L 85 27.5 C 85 28.328125 84.328125 29 83.5 29 Z M 75 28 L 83.5 28 C 83.773438 28 84 27.777344 84 27.5 L 84 26.5 C 84 26.222656 83.773438 26 83.5 26 L 75 26 Z M 75 28 "/>
<path style=" stroke:none;fill-rule:nonzero;fill:rgb(12.156863%,12.941176%,16.862745%);fill-opacity:1;" d="M 82 25.5 C 81.722656 25.5 81.5 25.277344 81.5 25 L 81.5 15 C 81.5 14.722656 81.722656 14.5 82 14.5 C 82.277344 14.5 82.5 14.722656 82.5 15 L 82.5 25 C 82.5 25.277344 82.277344 25.5 82 25.5 Z M 82 25.5 "/>
<path style=" stroke:none;fill-rule:nonzero;fill:rgb(12.156863%,12.941176%,16.862745%);fill-opacity:1;" d="M 39 45.5 C 38.890625 45.5 38.78125 45.464844 38.6875 45.390625 C 38.472656 45.21875 38.4375 44.90625 38.609375 44.6875 L 63.324219 13.617188 C 63.496094 13.398438 63.8125 13.367188 64.027344 13.535156 C 64.242188 13.710938 64.277344 14.023438 64.105469 14.238281 L 39.390625 45.3125 C 39.292969 45.4375 39.144531 45.5 39 45.5 Z M 39 45.5 "/>
<path style=" stroke:none;fill-rule:nonzero;fill:rgb(12.156863%,12.941176%,16.862745%);fill-opacity:1;" d="M 49.058594 46 C 48.847656 46 48.636719 45.933594 48.453125 45.796875 C 48.015625 45.460938 47.933594 44.832031 48.265625 44.394531 L 66.207031 20.894531 C 66.539062 20.453125 67.167969 20.371094 67.605469 20.703125 C 68.046875 21.039062 68.128906 21.667969 67.796875 22.105469 L 49.855469 45.605469 C 49.65625 45.863281 49.359375 46 49.058594 46 Z M 49.058594 46 "/>
<path style=" stroke:none;fill-rule:nonzero;fill:rgb(12.156863%,12.941176%,16.862745%);fill-opacity:1;" d="M 74 64 L 67 64 C 66.445312 64 66 63.550781 66 63 L 66 21.898438 C 63.722656 21.433594 62 19.414062 62 17 C 62 14.921875 63.292969 13.070312 65.238281 12.339844 C 65.332031 12.285156 65.429688 12.246094 65.539062 12.222656 L 80.652344 9.105469 C 80.777344 9.078125 81.199219 9 81.5 9 C 83.429688 9 85 10.570312 85 12.5 C 85 13.710938 84.382812 14.816406 83.351562 15.464844 L 75 21.511719 L 75 63 C 75 63.550781 74.554688 64 74 64 Z M 68 62 L 73 62 L 73 21 C 73 20.679688 73.152344 20.378906 73.414062 20.191406 L 82.234375 13.804688 C 82.734375 13.488281 83 13.015625 83 12.5 C 83 11.671875 82.328125 11 81.5 11 C 81.34375 11.003906 81.0625 11.0625 81.050781 11.066406 L 66.132812 14.144531 C 66.109375 14.152344 66.085938 14.160156 66.058594 14.167969 C 64.828125 14.578125 64 15.71875 64 17 C 64 18.652344 65.347656 20 67 20 C 67.554688 20 68 20.449219 68 21 Z M 68 62 "/>
<path style=" stroke:none;fill-rule:nonzero;fill:rgb(12.156863%,12.941176%,16.862745%);fill-opacity:1;" d="M 49.5 54 C 49.222656 54 49 53.777344 49 53.5 L 49 51.5 C 49 51.222656 49.222656 51 49.5 51 C 49.777344 51 50 51.222656 50 51.5 L 50 53.5 C 50 53.777344 49.777344 54 49.5 54 Z M 49.5 54 "/>
<path style=" stroke:none;fill-rule:nonzero;fill:rgb(12.156863%,12.941176%,16.862745%);fill-opacity:1;" d="M 49.5 49 C 49.222656 49 49 48.777344 49 48.5 L 49 47.5 C 49 47.222656 49.222656 47 49.5 47 C 49.777344 47 50 47.222656 50 47.5 L 50 48.5 C 50 48.777344 49.777344 49 49.5 49 Z M 49.5 49 "/>
<path style=" stroke:none;fill-rule:nonzero;fill:rgb(12.156863%,12.941176%,16.862745%);fill-opacity:1;" d="M 54 73 L 28 73 L 28 66 L 54 66 Z M 30 71 L 52 71 L 52 68 L 30 68 Z M 30 71 "/>
</g>
</svg>
