<?xml version="1.0" encoding="UTF-8"?>
<svg xmlns="http://www.w3.org/2000/svg" xmlns:xlink="http://www.w3.org/1999/xlink" width="100pt" height="100pt" viewBox="0 0 100 100" version="1.1">
<g id="surface5969">
<path style=" stroke:none;fill-rule:nonzero;fill:rgb(91.764706%,83.921569%,78.039216%);fill-opacity:1;" d="M 59 87 L 59 76 L 65 76 C 70.523438 76 75 71.523438 75 66 L 75 58 L 81.628906 55.054688 C 82.890625 54.492188 83.382812 52.957031 82.675781 51.769531 L 76.167969 40.816406 C 75.929688 40.382812 75.78125 39.910156 75.714844 39.417969 C 73.726562 25.058594 61.40625 14 46.5 14 C 30.207031 14 17 27.207031 17 43.5 C 17 45.03125 17.121094 46.53125 17.347656 48 L 17.367188 48 C 18.019531 52.265625 19.566406 56.234375 21.84375 59.691406 C 25.140625 64.695312 27 70.507812 27 76.5 L 27 87 Z M 59 87 "/>
<path style=" stroke:none;fill-rule:nonzero;fill:rgb(12.156863%,12.941176%,16.862745%);fill-opacity:1;" d="M 59 88 C 58.449219 88 58 87.554688 58 87 L 58 76 C 58 75.445312 58.449219 75 59 75 L 65 75 C 69.960938 75 74 70.964844 74 66 L 74 58 C 74 57.605469 74.234375 57.246094 74.59375 57.085938 L 81.222656 54.140625 C 81.570312 53.984375 81.824219 53.703125 81.9375 53.34375 C 82.054688 52.984375 82.011719 52.605469 81.816406 52.28125 L 75.308594 41.328125 C 75.003906 40.773438 74.8125 40.183594 74.722656 39.554688 C 72.785156 25.558594 60.652344 15 46.5 15 C 30.785156 15 18 27.785156 18 43.5 C 18 44.867188 18.105469 46.269531 18.308594 47.667969 C 18.332031 47.726562 18.347656 47.785156 18.355469 47.847656 C 18.980469 51.9375 20.433594 55.734375 22.675781 59.140625 C 26.160156 64.429688 28 70.429688 28 76.5 L 28 87 C 28 87.554688 27.550781 88 27 88 C 26.449219 88 26 87.554688 26 87 L 26 76.5 C 26 70.820312 24.273438 65.199219 21.007812 60.242188 C 18.636719 56.644531 17.089844 52.640625 16.40625 48.335938 C 16.386719 48.277344 16.367188 48.214844 16.359375 48.152344 C 16.121094 46.59375 16 45.027344 16 43.5 C 16 26.683594 29.683594 13 46.5 13 C 61.644531 13 74.628906 24.300781 76.703125 39.28125 C 76.757812 39.667969 76.871094 40.023438 77.046875 40.335938 L 83.535156 51.257812 C 84.015625 52.070312 84.128906 53.050781 83.84375 53.949219 C 83.558594 54.847656 82.898438 55.582031 82.035156 55.96875 L 76 58.648438 L 76 66 C 76 72.066406 71.066406 77 65 77 L 60 77 L 60 87 C 60 87.554688 59.550781 88 59 88 Z M 59 88 "/>
<path style=" stroke:none;fill-rule:nonzero;fill:rgb(12.156863%,12.941176%,16.862745%);fill-opacity:1;" d="M 59.5 76 L 50.5 76 C 50.222656 76 50 75.777344 50 75.5 C 50 75.222656 50.222656 75 50.5 75 L 59.5 75 C 59.777344 75 60 75.222656 60 75.5 C 60 75.777344 59.777344 76 59.5 76 Z M 59.5 76 "/>
<path style=" stroke:none;fill-rule:nonzero;fill:rgb(12.156863%,12.941176%,16.862745%);fill-opacity:1;" d="M 48.5 76 L 46.5 76 C 46.222656 76 46 75.777344 46 75.5 C 46 75.222656 46.222656 75 46.5 75 L 48.5 75 C 48.777344 75 49 75.222656 49 75.5 C 49 75.777344 48.777344 76 48.5 76 Z M 48.5 76 "/>
<path style="fill:none;stroke-width:2;stroke-linecap:round;stroke-linejoin:round;stroke:rgb(14.509804%,14.901961%,18.431373%);stroke-opacity:1;stroke-miterlimit:10;" d="M 37.242188 31.71875 C 34.597656 34.363281 31.953125 37.007812 29.308594 39.652344 C 31.953125 42.296875 34.597656 44.941406 37.242188 47.585938 "/>
<path style="fill:none;stroke-width:2;stroke-linecap:round;stroke-linejoin:round;stroke:rgb(14.509804%,14.901961%,18.431373%);stroke-opacity:1;stroke-miterlimit:10;" d="M 56.066406 31.71875 C 58.710938 34.363281 61.355469 37.007812 64 39.652344 C 61.355469 42.296875 58.710938 44.941406 56.066406 47.585938 "/>
<path style="fill:none;stroke-width:2;stroke-linecap:round;stroke-linejoin:round;stroke:rgb(14.509804%,14.901961%,18.431373%);stroke-opacity:1;stroke-miterlimit:10;" d="M 49.984375 28 C 47.695312 35.980469 45.40625 43.960938 43.121094 51.941406 "/>
</g>
</svg>
