<?xml version="1.0" encoding="UTF-8"?>
<svg xmlns="http://www.w3.org/2000/svg" xmlns:xlink="http://www.w3.org/1999/xlink" width="100pt" height="100pt" viewBox="0 0 100 100" version="1.1">
<g id="surface6064">
<path style=" stroke:none;fill-rule:nonzero;fill:rgb(63.921569%,63.921569%,80.392157%);fill-opacity:1;" d="M 84 70 L 16 70 C 13.238281 70 11 67.761719 11 65 L 11 21 C 11 18.238281 13.238281 16 16 16 L 84 16 C 86.761719 16 89 18.238281 89 21 L 89 65 C 89 67.761719 86.761719 70 84 70 Z M 84 70 "/>
<path style=" stroke:none;fill-rule:nonzero;fill:rgb(81.568627%,81.568627%,89.019608%);fill-opacity:1;" d="M 85.5 54 L 14.5 54 C 14.222656 54 14 53.777344 14 53.5 L 14 22.5 C 14 22.222656 14.222656 22 14.5 22 L 85.5 22 C 85.777344 22 86 22.222656 86 22.5 L 86 53.5 C 86 53.777344 85.777344 54 85.5 54 Z M 85.5 54 "/>
<path style=" stroke:none;fill-rule:nonzero;fill:rgb(99.607843%,99.215686%,93.72549%);fill-opacity:1;" d="M 11 56.5 L 11 65 C 11 67.761719 13.238281 70 16 70 L 38 70 L 38 71 L 62 71 L 62 70 L 84 70 C 86.761719 70 89 67.761719 89 65 L 89 56.5 L 68.5 56.5 L 68.5 57 L 31.5 57 L 31.5 56.5 Z M 11 56.5 "/>
<path style=" stroke:none;fill-rule:nonzero;fill:rgb(91.764706%,83.921569%,78.039216%);fill-opacity:1;" d="M 69.910156 82.84375 C 69.503906 80.199219 67.675781 78.046875 64.625 76.621094 C 63.074219 75.898438 58.5 73.683594 58.40625 73.644531 C 58.308594 73.605469 55.996094 72.683594 55.996094 70.246094 L 55.996094 68.125 C 55.90625 68.199219 55.820312 68.273438 55.726562 68.347656 C 55.726562 68.347656 54 69.5 53 69.5 C 52 69.5 47.5 69.5 47 69.5 C 46 69.5 44.273438 68.347656 44.273438 68.347656 C 44.175781 68.277344 44.09375 68.199219 44 68.128906 L 44 70.246094 C 44 72.710938 41.601562 73.648438 41.5 73.6875 L 41.039062 73.859375 L 41.023438 73.914062 C 39.90625 74.453125 36.648438 76.027344 35.375 76.621094 C 32.320312 78.050781 30.492188 80.199219 30.089844 82.84375 L 29.910156 83.996094 L 70.089844 83.996094 Z M 69.910156 82.84375 "/>
<path style=" stroke:none;fill-rule:nonzero;fill:rgb(94.509804%,35.686275%,42.352941%);fill-opacity:1;" d="M 64.625 76.625 C 63.078125 75.902344 58.5 73.6875 58.5 73.6875 C 58.5 73.6875 57.390625 73.082031 57.378906 73.074219 L 57.132812 73.488281 C 57.117188 73.507812 55.929688 75.5 50 75.5 C 44.367188 75.5 43.027344 73.734375 42.894531 73.53125 L 42.628906 73.066406 C 42.621094 73.070312 41.503906 73.6875 41.503906 73.6875 C 41.503906 73.6875 36.925781 75.902344 35.378906 76.625 C 32.976562 77.746094 30.003906 80 30.003906 84 L 70 84 C 70 80 67.023438 77.746094 64.625 76.625 Z M 64.625 76.625 "/>
<path style=" stroke:none;fill-rule:nonzero;fill:rgb(71.764706%,46.666667%,28.235294%);fill-opacity:1;" d="M 62 58.5 C 62 58.5 65.5 54.5 65.5 42.65625 C 65.5 36.738281 63.039062 32.316406 59.683594 32.078125 C 58.953125 30.265625 56.339844 27.5 50.59375 27.5 C 40.699219 27.5 34.5 35.078125 34.5 42.65625 C 34.5 55.5 38 58.5 38 58.5 C 38 58.5 38.5 64 44.273438 68.347656 C 44.273438 68.347656 46 69.5 47 69.5 C 47.5 69.5 52 69.5 53 69.5 C 54 69.5 55.726562 68.347656 55.726562 68.347656 C 61.5 64 62 58.5 62 58.5 Z M 62 58.5 "/>
<path style=" stroke:none;fill-rule:nonzero;fill:rgb(12.156863%,12.941176%,16.862745%);fill-opacity:1;" d="M 84 71 L 62 71 C 61.445312 71 61 70.550781 61 70 C 61 69.449219 61.445312 69 62 69 L 84 69 C 86.207031 69 88 67.207031 88 65 L 88 21 C 88 18.792969 86.207031 17 84 17 L 16 17 C 13.792969 17 12 18.792969 12 21 L 12 65 C 12 67.207031 13.792969 69 16 69 L 38 69 C 38.554688 69 39 69.449219 39 70 C 39 70.550781 38.554688 71 38 71 L 16 71 C 12.691406 71 10 68.308594 10 65 L 10 21 C 10 17.691406 12.691406 15 16 15 L 84 15 C 87.308594 15 90 17.691406 90 21 L 90 65 C 90 68.308594 87.308594 71 84 71 Z M 84 71 "/>
<path style=" stroke:none;fill-rule:nonzero;fill:rgb(12.156863%,12.941176%,16.862745%);fill-opacity:1;" d="M 89 57 L 68.5 57 C 68.222656 57 68 56.777344 68 56.5 C 68 56.222656 68.222656 56 68.5 56 L 89 56 C 89.277344 56 89.5 56.222656 89.5 56.5 C 89.5 56.777344 89.277344 57 89 57 Z M 89 57 "/>
<path style=" stroke:none;fill-rule:nonzero;fill:rgb(12.156863%,12.941176%,16.862745%);fill-opacity:1;" d="M 31.5 57 L 11 57 C 10.722656 57 10.5 56.777344 10.5 56.5 C 10.5 56.222656 10.722656 56 11 56 L 31.5 56 C 31.777344 56 32 56.222656 32 56.5 C 32 56.777344 31.777344 57 31.5 57 Z M 31.5 57 "/>
<path style=" stroke:none;fill-rule:nonzero;fill:rgb(12.156863%,12.941176%,16.862745%);fill-opacity:1;" d="M 30.5 54 L 14.5 54 C 14.222656 54 14 53.777344 14 53.5 L 14 50.5 C 14 50.222656 14.222656 50 14.5 50 C 14.777344 50 15 50.222656 15 50.5 L 15 53 L 30.5 53 C 30.777344 53 31 53.222656 31 53.5 C 31 53.777344 30.777344 54 30.5 54 Z M 30.5 54 "/>
<path style=" stroke:none;fill-rule:nonzero;fill:rgb(12.156863%,12.941176%,16.862745%);fill-opacity:1;" d="M 85.5 54 L 69.5 54 C 69.222656 54 69 53.777344 69 53.5 C 69 53.222656 69.222656 53 69.5 53 L 85 53 L 85 26.5 C 85 26.222656 85.222656 26 85.5 26 C 85.777344 26 86 26.222656 86 26.5 L 86 53.5 C 86 53.777344 85.777344 54 85.5 54 Z M 85.5 54 "/>
<path style=" stroke:none;fill-rule:nonzero;fill:rgb(12.156863%,12.941176%,16.862745%);fill-opacity:1;" d="M 14.5 47 C 14.222656 47 14 46.777344 14 46.5 L 14 43.5 C 14 43.222656 14.222656 43 14.5 43 C 14.777344 43 15 43.222656 15 43.5 L 15 46.5 C 15 46.777344 14.777344 47 14.5 47 Z M 14.5 47 "/>
<path style=" stroke:none;fill-rule:nonzero;fill:rgb(12.156863%,12.941176%,16.862745%);fill-opacity:1;" d="M 14.5 39 C 14.222656 39 14 38.777344 14 38.5 L 14 22.5 C 14 22.222656 14.222656 22 14.5 22 L 83.5 22 C 83.777344 22 84 22.222656 84 22.5 C 84 22.777344 83.777344 23 83.5 23 L 15 23 L 15 38.5 C 15 38.777344 14.777344 39 14.5 39 Z M 14.5 39 "/>
<path style=" stroke:none;fill-rule:nonzero;fill:rgb(12.156863%,12.941176%,16.862745%);fill-opacity:1;" d="M 51.5 20 L 48.5 20 C 48.222656 20 48 19.777344 48 19.5 C 48 19.222656 48.222656 19 48.5 19 L 51.5 19 C 51.777344 19 52 19.222656 52 19.5 C 52 19.777344 51.777344 20 51.5 20 Z M 51.5 20 "/>
<path style=" stroke:none;fill-rule:nonzero;fill:rgb(12.156863%,12.941176%,16.862745%);fill-opacity:1;" d="M 53 70 L 47 70 C 45.882812 70 44.183594 68.890625 43.996094 68.765625 C 38.617188 64.714844 37.667969 59.765625 37.523438 58.730469 C 36.824219 57.980469 34 54.226562 34 42.65625 C 34 34.960938 40.207031 27 50.59375 27 C 55.960938 27 58.984375 29.421875 60.023438 31.613281 C 63.503906 32.101562 66 36.667969 66 42.65625 C 66 53.554688 63.082031 57.914062 62.480469 58.699219 C 62.351562 59.660156 61.4375 64.671875 56.027344 68.746094 C 55.8125 68.890625 54.117188 70 53 70 Z M 50.59375 28 C 40.832031 28 35 35.453125 35 42.65625 C 35 55.125 38.292969 58.09375 38.324219 58.121094 C 38.425781 58.203125 38.484375 58.324219 38.496094 58.453125 C 38.503906 58.507812 39.0625 63.796875 44.574219 67.949219 C 45.171875 68.34375 46.382812 69 47 69 L 53 69 C 53.617188 69 54.828125 68.34375 55.449219 67.929688 C 60.9375 63.796875 61.496094 58.507812 61.503906 58.453125 C 61.511719 58.347656 61.554688 58.25 61.621094 58.171875 C 61.667969 58.117188 65 54.089844 65 42.65625 C 65 37.035156 62.75 32.796875 59.644531 32.578125 C 59.457031 32.5625 59.289062 32.441406 59.21875 32.265625 C 58.425781 30.296875 55.691406 28 50.59375 28 Z M 50.59375 28 "/>
<path style=" stroke:none;fill-rule:nonzero;fill:rgb(12.156863%,12.941176%,16.862745%);fill-opacity:1;" d="M 65.046875 75.714844 C 63.503906 74.992188 58.933594 72.785156 58.855469 72.75 C 58.78125 72.722656 57 72.003906 57 70.246094 L 57 67.285156 C 56.601562 67.644531 56.1875 68 55.726562 68.347656 C 55.726562 68.347656 55.421875 68.550781 55 68.78125 L 55 70.246094 C 55 73.402344 58.019531 74.574219 58.0625 74.585938 C 58.0625 74.585938 62.648438 76.804688 64.199219 77.527344 C 66.171875 78.449219 68.480469 80.125 68.925781 83 L 31.074219 83 C 31.515625 80.128906 33.828125 78.449219 35.800781 77.53125 C 37.335938 76.8125 41.855469 74.625 41.855469 74.621094 C 42 74.566406 45 73.394531 45 70.246094 L 45 68.78125 C 44.578125 68.550781 44.273438 68.347656 44.273438 68.347656 C 43.8125 68 43.394531 67.644531 43 67.289062 L 43 70.246094 C 43 72.007812 41.21875 72.722656 41.066406 72.785156 C 41.0625 72.785156 36.496094 74.996094 34.953125 75.71875 C 32.730469 76.757812 29 79.214844 29 84 C 29 84.265625 29.105469 84.519531 29.292969 84.707031 C 29.480469 84.894531 29.734375 85 30 85 L 69.996094 85 C 70.550781 85 70.996094 84.550781 70.996094 83.996094 C 70.996094 79.210938 67.269531 76.753906 65.046875 75.714844 Z M 65.046875 75.714844 "/>
<path style=" stroke:none;fill-rule:nonzero;fill:rgb(12.156863%,12.941176%,16.862745%);fill-opacity:1;" d="M 50 75.996094 C 43.882812 75.996094 42.566406 73.972656 42.4375 73.742188 C 42.300781 73.5 42.386719 73.195312 42.628906 73.0625 C 42.863281 72.925781 43.164062 73.007812 43.304688 73.242188 C 43.335938 73.292969 44.527344 74.996094 49.996094 74.996094 C 55.523438 74.996094 56.683594 73.257812 56.695312 73.242188 C 56.839844 73.011719 57.140625 72.933594 57.378906 73.074219 C 57.609375 73.210938 57.691406 73.507812 57.558594 73.742188 C 57.429688 73.972656 56.117188 75.996094 50 75.996094 Z M 50 75.996094 "/>
</g>
</svg>
