<?xml version="1.0" encoding="UTF-8"?>
<svg xmlns="http://www.w3.org/2000/svg" xmlns:xlink="http://www.w3.org/1999/xlink" width="100pt" height="100pt" viewBox="0 0 100 100" version="1.1">
<g id="surface6762">
<path style=" stroke:none;fill-rule:nonzero;fill:rgb(91.764706%,83.921569%,78.039216%);fill-opacity:1;" d="M 59 73 C 54.675781 71.378906 51.8125 70.339844 50.09375 69.730469 C 49.808594 69.628906 49.554688 69.539062 49.328125 69.460938 C 48.527344 69.179688 48 68.425781 48 67.574219 L 48 64.542969 C 52.441406 61.652344 56 57 56 55 C 56 54 56 51 56 51 C 58 51 58.382812 49.101562 59 47 C 59.570312 45.066406 60 43 60 42 C 60 40.125 56.742188 39.5 56.742188 39.5 L 56.621094 39.5 C 56.589844 37.75 56.296875 29.59375 53.75 24.5 C 53.75 24.5 47.5 22.5 41 22.5 C 34.5 22.5 28.25 24.5 28.25 24.5 C 25.699219 29.605469 25.320312 37.785156 25.261719 39.515625 C 24.507812 39.609375 22 40.277344 22 42 C 22 43 22.429688 45.066406 23 47 C 23.617188 49.101562 24 51 26 51 C 26 51 26 54 26 55 C 26 57 29.558594 61.652344 34 64.542969 L 34 67.574219 C 34 68.425781 33.472656 69.179688 32.671875 69.460938 C 32.445312 69.539062 32.191406 69.628906 31.90625 69.730469 C 30.1875 70.339844 27.324219 71.378906 23 73 C 15 76 15 84 15 84 L 67 84 C 67 84 67 76 59 73 Z M 59 73 "/>
<path style=" stroke:none;fill-rule:nonzero;fill:rgb(12.156863%,12.941176%,16.862745%);fill-opacity:1;" d="M 41 55 C 39.023438 55 38.136719 53.847656 38.101562 53.800781 C 37.933594 53.578125 37.980469 53.265625 38.199219 53.101562 C 38.421875 52.933594 38.730469 52.980469 38.898438 53.195312 C 38.929688 53.238281 39.554688 54 41 54 C 42.453125 54 43.078125 53.230469 43.105469 53.195312 C 43.273438 52.980469 43.585938 52.9375 43.804688 53.105469 C 44.019531 53.273438 44.066406 53.582031 43.902344 53.800781 C 43.863281 53.847656 42.976562 55 41 55 Z M 41 55 "/>
<path style=" stroke:none;fill-rule:nonzero;fill:rgb(78.039216%,87.45098%,94.509804%);fill-opacity:1;" d="M 59 73 C 54.96875 71.488281 52.222656 70.488281 50.476562 69.867188 L 49.683594 69.511719 C 49.617188 69.644531 49.554688 69.769531 49.542969 69.792969 C 49.464844 69.96875 47.5625 74 41 74 C 34.4375 74 32.535156 69.96875 32.457031 69.796875 C 32.4375 69.753906 32.378906 69.632812 32.3125 69.503906 L 31.523438 69.867188 C 29.777344 70.488281 27.03125 71.488281 23 73 C 15 76 15 84 15 84 L 67 84 C 67 84 67 76 59 73 Z M 59 73 "/>
<path style=" stroke:none;fill-rule:nonzero;fill:rgb(12.156863%,12.941176%,16.862745%);fill-opacity:1;" d="M 41 67 C 38.894531 67 36.472656 66.148438 34 64.542969 L 34.546875 63.703125 C 36.855469 65.207031 39.089844 66 41 66 C 42.910156 66 45.144531 65.207031 47.453125 63.703125 L 48 64.542969 C 45.527344 66.148438 43.105469 67 41 67 Z M 41 67 "/>
<path style=" stroke:none;fill-rule:nonzero;fill:rgb(47.058824%,63.529412%,82.352941%);fill-opacity:1;" d="M 59.5 73.25 L 52.5 70.5 L 52.5 79.5 L 29.5 79.5 L 29.5 70.5 L 22.5 73.25 L 22.5 83.5 L 62.5 83.5 Z M 59.5 73.25 "/>
<path style=" stroke:none;fill-rule:nonzero;fill:rgb(12.156863%,12.941176%,16.862745%);fill-opacity:1;" d="M 63.167969 84 L 22 84 L 22 72.910156 L 30 69.765625 L 30 79 L 52 79 L 52 69.765625 L 59.910156 72.875 Z M 23 83 L 61.832031 83 L 59.089844 73.625 L 53 71.234375 L 53 80 L 29 80 L 29 71.234375 L 23 73.589844 Z M 23 83 "/>
<path style=" stroke:none;fill-rule:nonzero;fill:rgb(12.156863%,12.941176%,16.862745%);fill-opacity:1;" d="M 67 85 L 15 85 C 14.445312 85 14 84.554688 14 84 C 14 83.914062 14.097656 75.269531 22.648438 72.0625 C 27.148438 70.375 29.988281 69.351562 31.574219 68.789062 L 32.328125 68.519531 C 32.660156 68.402344 32.902344 68.128906 32.972656 67.800781 C 32.992188 67.710938 33 67.644531 33 67.578125 L 33 65.074219 C 28.757812 62.160156 25 57.464844 25 55 L 25 51.867188 C 23.21875 51.359375 22.671875 49.464844 22.179688 47.761719 L 22.039062 47.285156 C 21.5625 45.65625 21 43.300781 21 42 C 21 39.964844 23.917969 39.21875 24.878906 38.976562 L 25.371094 40.914062 C 23.574219 41.371094 23.042969 41.875 22.996094 42.015625 C 23 42.855469 23.402344 44.835938 23.960938 46.71875 L 24.101562 47.210938 C 24.726562 49.371094 25.050781 50 26 50 C 26.554688 50 27 50.445312 27 51 L 27 55 C 27 56.492188 30.238281 60.898438 34.546875 63.703125 C 34.828125 63.886719 35 64.203125 35 64.539062 L 35 67.578125 C 35 67.785156 34.976562 67.996094 34.929688 68.222656 C 34.714844 69.226562 33.972656 70.066406 32.996094 70.40625 L 32.246094 70.671875 C 30.664062 71.234375 27.835938 72.253906 23.351562 73.9375 C 17.710938 76.050781 16.398438 80.902344 16.09375 83 L 65.914062 83 C 65.625 80.898438 64.339844 76.070312 58.648438 73.9375 C 54.164062 72.253906 51.335938 71.234375 49.753906 70.675781 L 48.984375 70.402344 C 48.023438 70.066406 47.304688 69.257812 47.074219 68.242188 C 47.023438 68.011719 47 67.789062 47 67.578125 L 47 64.539062 C 47 64.203125 47.171875 63.886719 47.453125 63.703125 C 51.761719 60.898438 55 56.492188 55 55 L 55 51 C 55 50.445312 55.445312 50 56 50 C 56.949219 50 57.273438 49.371094 57.898438 47.207031 L 58.039062 46.71875 C 58.597656 44.835938 59 42.851562 59 42 C 58.953125 41.859375 58.363281 41.320312 56.363281 40.847656 L 56.820312 38.902344 C 57.855469 39.144531 61 39.890625 61 42 C 61 43.300781 60.4375 45.65625 59.960938 47.28125 L 59.820312 47.761719 C 59.328125 49.464844 58.78125 51.359375 57 51.867188 L 57 55 C 57 57.464844 53.242188 62.160156 49 65.074219 L 49 67.578125 C 49 67.648438 49.011719 67.726562 49.027344 67.808594 C 49.101562 68.136719 49.339844 68.40625 49.65625 68.515625 L 50.429688 68.789062 C 52.011719 69.351562 54.851562 70.375 59.351562 72.0625 C 67.902344 75.269531 68 83.914062 68 84 C 68 84.554688 67.554688 85 67 85 Z M 67 85 "/>
<path style=" stroke:none;fill-rule:nonzero;fill:rgb(12.156863%,12.941176%,16.862745%);fill-opacity:1;" d="M 41 60 C 36.304688 60 33.277344 57.769531 33.148438 57.675781 C 32.984375 57.550781 32.949219 57.316406 33.074219 57.152344 C 33.199219 56.984375 33.433594 56.949219 33.601562 57.074219 C 33.628906 57.097656 36.566406 59 41 59 C 45.433594 59 48.371094 57.097656 48.398438 57.074219 C 48.566406 56.949219 48.800781 56.984375 48.925781 57.152344 C 49.050781 57.316406 49.015625 57.550781 48.851562 57.675781 C 48.722656 57.769531 45.695312 60 41 60 Z M 34 40 C 33.199219 40 32.519531 40.589844 32.195312 41.433594 C 32.378906 41.179688 32.660156 41 33 41 C 33.550781 41 34 41.449219 34 42 C 34 42.550781 33.550781 43 33 43 C 32.496094 43 32.101562 42.625 32.027344 42.144531 C 32.015625 42.261719 32 42.378906 32 42.5 C 32 43.882812 32.894531 45 34 45 C 35.105469 45 36 43.882812 36 42.5 C 36 41.117188 35.105469 40 34 40 Z M 48 40 C 47.199219 40 46.519531 40.589844 46.195312 41.433594 C 46.378906 41.179688 46.660156 41 47 41 C 47.550781 41 48 41.449219 48 42 C 48 42.550781 47.550781 43 47 43 C 46.496094 43 46.101562 42.625 46.027344 42.144531 C 46.015625 42.261719 46 42.378906 46 42.5 C 46 43.882812 46.894531 45 48 45 C 49.105469 45 50 43.882812 50 42.5 C 50 41.117188 49.105469 40 48 40 Z M 22.5 76 L 29.5 76 L 29.5 80 L 22.5 80 Z M 52.5 76 L 59.5 76 L 59.5 80 L 52.5 80 Z M 52.5 76 "/>
<path style=" stroke:none;fill-rule:nonzero;fill:rgb(73.333333%,47.843137%,32.941176%);fill-opacity:1;" d="M 41 15.503906 C 35.539062 15.539062 22.5 18.121094 22.5 34.5 C 22.5 40.5 25.421875 43.5 25.421875 43.5 C 25.421875 43.5 25.421875 39.5 28.34375 35.5 C 33.945312 35.5 48.054688 35.5 53.65625 35.5 C 56.578125 39.5 56.578125 43.5 56.578125 43.5 C 56.578125 43.5 59.5 40.5 59.5 34.5 C 59.5 18.121094 46.460938 15.539062 41 15.503906 Z M 41 15.503906 "/>
<path style=" stroke:none;fill-rule:nonzero;fill:rgb(12.156863%,12.941176%,16.862745%);fill-opacity:1;" d="M 25.421875 44 C 25.289062 44 25.15625 43.945312 25.0625 43.847656 C 24.9375 43.722656 22 40.632812 22 34.5 C 22 15.675781 39.050781 15.015625 40.996094 15.003906 C 41 15.003906 41 15.003906 41.003906 15.003906 C 42.949219 15.015625 60 15.675781 60 34.5 C 60 40.632812 57.0625 43.722656 56.9375 43.847656 C 56.796875 43.992188 56.578125 44.039062 56.390625 43.964844 C 56.203125 43.886719 56.078125 43.703125 56.078125 43.5 C 56.078125 43.464844 56.035156 39.742188 53.398438 36 L 28.597656 36 C 25.953125 39.753906 25.921875 43.460938 25.921875 43.5 C 25.921875 43.703125 25.796875 43.886719 25.609375 43.964844 C 25.546875 43.988281 25.484375 44 25.421875 44 Z M 28.34375 35 L 53.65625 35 C 53.816406 35 53.96875 35.074219 54.0625 35.203125 C 56.039062 37.914062 56.722656 40.605469 56.957031 42.15625 C 57.78125 40.859375 59 38.296875 59 34.5 C 59 17.019531 44.015625 16.023438 41 16.003906 C 37.984375 16.023438 23 17.019531 23 34.5 C 23 38.296875 24.21875 40.859375 25.042969 42.15625 C 25.277344 40.605469 25.960938 37.914062 27.9375 35.203125 C 28.03125 35.074219 28.183594 35 28.34375 35 Z M 28.34375 35 "/>
<path style=" stroke:none;fill-rule:nonzero;fill:rgb(47.058824%,63.529412%,82.352941%);fill-opacity:1;" d="M 59.5 33.5 L 59.5 29.429688 C 59.5 19.777344 50.648438 13.5 41 13.5 C 31.351562 13.5 22.5 19.777344 22.5 29.429688 L 22.5 33.5 Z M 59.5 33.5 "/>
<path style=" stroke:none;fill-rule:nonzero;fill:rgb(12.156863%,12.941176%,16.862745%);fill-opacity:1;" d="M 59.5 34 L 22.5 34 C 22.222656 34 22 33.777344 22 33.5 L 22 29.429688 C 22 19.144531 31.660156 13 41 13 C 50.339844 13 60 19.144531 60 29.429688 L 60 33.5 C 60 33.777344 59.777344 34 59.5 34 Z M 23 33 L 59 33 L 59 29.429688 C 59 19.769531 49.847656 14 41 14 C 32.152344 14 23 19.769531 23 29.429688 Z M 23 33 "/>
<path style=" stroke:none;fill-rule:nonzero;fill:rgb(78.039216%,87.45098%,94.509804%);fill-opacity:1;" d="M 29.5 30.5 L 52.5 30.5 C 52.5 30.5 51.5 17.5 41.007812 13.5 C 30.5 17.5 29.5 30.5 29.5 30.5 Z M 29.5 30.5 "/>
<path style=" stroke:none;fill-rule:nonzero;fill:rgb(12.156863%,12.941176%,16.862745%);fill-opacity:1;" d="M 53.039062 31 L 28.960938 31 L 29.003906 30.460938 C 29.011719 30.328125 30.148438 17.097656 40.828125 13.03125 L 41.007812 12.964844 L 41.1875 13.03125 C 51.851562 17.097656 52.988281 30.328125 53 30.460938 Z M 30.0625 30 L 51.9375 30 C 51.605469 27.554688 49.726562 17.484375 41.007812 14.035156 C 32.277344 17.484375 30.394531 27.554688 30.0625 30 Z M 30.0625 30 "/>
<path style=" stroke:none;fill-rule:nonzero;fill:rgb(47.058824%,63.529412%,82.352941%);fill-opacity:1;" d="M 41 11.5 C 39.625 11.5 38.5 12.078125 38.5 12.75 L 38.5 13.125 C 38.5 13.675781 38.949219 14.125 39.5 14.125 L 42.5 14.125 C 43.050781 14.125 43.5 13.675781 43.5 13.125 L 43.5 12.75 C 43.5 12.078125 42.375 11.5 41 11.5 Z M 41 11.5 "/>
<path style=" stroke:none;fill-rule:nonzero;fill:rgb(12.156863%,12.941176%,16.862745%);fill-opacity:1;" d="M 42.5 14.625 L 39.5 14.625 C 38.671875 14.625 38 13.953125 38 13.125 L 38 12.75 C 38 11.769531 39.316406 11 41 11 C 42.683594 11 44 11.769531 44 12.75 L 44 13.125 C 44 13.953125 43.328125 14.625 42.5 14.625 Z M 41 12 C 39.777344 12 39 12.492188 39 12.75 L 39 13.125 C 39 13.398438 39.226562 13.625 39.5 13.625 L 42.5 13.625 C 42.773438 13.625 43 13.398438 43 13.125 L 43 12.75 C 43 12.492188 42.222656 12 41 12 Z M 41 12 "/>
<path style=" stroke:none;fill-rule:nonzero;fill:rgb(78.039216%,87.45098%,94.509804%);fill-opacity:1;" d="M 41 28.5 C 28 28.5 22.5 33.5 22.5 33.5 C 24.351562 36.320312 26.054688 38.5 27.34375 38.5 C 28.21875 38.5 29.898438 36.597656 40.996094 36.597656 C 52.097656 36.597656 53.6875 38.5 54.566406 38.5 C 55.847656 38.5 57.648438 36.320312 59.5 33.5 C 59.5 33.5 54 28.5 41 28.5 Z M 41 28.5 "/>
<path style=" stroke:none;fill-rule:nonzero;fill:rgb(12.156863%,12.941176%,16.862745%);fill-opacity:1;" d="M 54.566406 39 C 54.277344 39 54.007812 38.890625 53.605469 38.730469 C 52.394531 38.242188 49.5625 37.097656 40.996094 37.097656 C 32.429688 37.097656 29.542969 38.242188 28.308594 38.730469 C 27.902344 38.894531 27.628906 39 27.34375 39 C 25.820312 39 24.140625 36.910156 22.082031 33.773438 C 21.945312 33.570312 21.980469 33.296875 22.164062 33.128906 C 22.394531 32.921875 27.957031 28 41 28 C 54.042969 28 59.605469 32.921875 59.835938 33.128906 C 60.019531 33.296875 60.054688 33.566406 59.917969 33.773438 C 57.546875 37.390625 55.894531 39 54.566406 39 Z M 40.996094 36.097656 C 49.757812 36.097656 52.714844 37.289062 53.976562 37.800781 C 54.242188 37.90625 54.472656 38 54.566406 38 C 55.066406 38 56.277344 37.417969 58.828125 33.605469 C 57.46875 32.589844 51.886719 29 41 29 C 30.109375 29 24.527344 32.589844 23.167969 33.605469 C 24.117188 35.035156 26.171875 38 27.34375 38 C 27.441406 38 27.671875 37.90625 27.941406 37.800781 C 29.226562 37.289062 32.234375 36.097656 40.996094 36.097656 Z M 41 75 C 33.757812 75 31.628906 70.398438 31.542969 70.203125 C 31.433594 69.949219 31.542969 69.65625 31.796875 69.546875 C 32.046875 69.429688 32.34375 69.542969 32.457031 69.796875 C 32.535156 69.96875 34.4375 74 41 74 C 41.457031 74 41.917969 73.976562 42.449219 73.921875 C 42.703125 73.894531 42.96875 74.09375 42.996094 74.367188 C 43.023438 74.644531 42.824219 74.890625 42.550781 74.914062 C 41.984375 74.972656 41.492188 75 41 75 Z M 47.5 73.207031 C 47.339844 73.207031 47.183594 73.132812 47.085938 72.988281 C 46.933594 72.761719 46.988281 72.449219 47.21875 72.296875 C 48.929688 71.132812 49.539062 69.808594 49.542969 69.796875 C 49.65625 69.539062 49.957031 69.429688 50.203125 69.542969 C 50.457031 69.65625 50.570312 69.953125 50.457031 70.203125 C 50.425781 70.269531 49.722656 71.804688 47.78125 73.121094 C 47.695312 73.179688 47.597656 73.207031 47.5 73.207031 Z M 44.5 74.5625 C 44.277344 74.5625 44.078125 74.414062 44.019531 74.191406 C 43.945312 73.925781 44.105469 73.652344 44.371094 73.582031 C 44.710938 73.488281 45.023438 73.382812 45.324219 73.269531 C 45.585938 73.171875 45.871094 73.300781 45.96875 73.558594 C 46.066406 73.816406 45.9375 74.105469 45.679688 74.203125 C 45.347656 74.328125 45.003906 74.445312 44.632812 74.546875 C 44.585938 74.558594 44.542969 74.5625 44.5 74.5625 Z M 44.5 74.5625 "/>
<path style=" stroke:none;fill-rule:nonzero;fill:rgb(98.823529%,72.941176%,49.803922%);fill-opacity:1;" d="M 86 66 L 86 81 C 86 82.65625 84.65625 84 83 84 L 63 84 C 61.34375 84 60 82.65625 60 81 L 60 66 "/>
<path style=" stroke:none;fill-rule:nonzero;fill:rgb(100%,100%,100%);fill-opacity:1;" d="M 77 70.5 C 76.359375 70.5 69.640625 70.5 69 70.5 C 68.171875 70.5 67.5 71.171875 67.5 72 C 67.5 72.828125 68.171875 73.5 69 73.5 C 69.640625 73.5 76.359375 73.5 77 73.5 C 77.828125 73.5 78.5 72.828125 78.5 72 C 78.5 71.171875 77.828125 70.5 77 70.5 Z M 77 70.5 "/>
<path style=" stroke:none;fill-rule:nonzero;fill:rgb(99.607843%,83.529412%,70.196078%);fill-opacity:1;" d="M 84 67 L 62 67 C 60.34375 67 59 65.65625 59 64 L 59 58 L 87 58 L 87 64 C 87 65.65625 85.65625 67 84 67 Z M 84 67 "/>
<path style=" stroke:none;fill-rule:nonzero;fill:rgb(12.156863%,12.941176%,16.862745%);fill-opacity:1;" d="M 77 74 L 69 74 C 67.898438 74 67 73.101562 67 72 C 67 70.898438 67.898438 70 69 70 L 77 70 C 78.101562 70 79 70.898438 79 72 C 79 73.101562 78.101562 74 77 74 Z M 69 71 C 68.449219 71 68 71.449219 68 72 C 68 72.550781 68.449219 73 69 73 L 77 73 C 77.550781 73 78 72.550781 78 72 C 78 71.449219 77.550781 71 77 71 Z M 84 68 L 62 68 C 59.792969 68 58 66.207031 58 64 L 58 58 C 58 57.445312 58.445312 57 59 57 L 87 57 C 87.554688 57 88 57.445312 88 58 L 88 64 C 88 66.207031 86.207031 68 84 68 Z M 60 59 L 60 64 C 60 65.101562 60.898438 66 62 66 L 84 66 C 85.101562 66 86 65.101562 86 64 L 86 59 Z M 60 59 "/>
<path style=" stroke:none;fill-rule:nonzero;fill:rgb(12.156863%,12.941176%,16.862745%);fill-opacity:1;" d="M 83 85 L 63 85 C 60.792969 85 59 83.207031 59 81 L 59 66 L 61 66 L 61 81 C 61 82.101562 61.898438 83 63 83 L 83 83 C 84.101562 83 85 82.101562 85 81 L 85 66 L 87 66 L 87 81 C 87 83.207031 85.207031 85 83 85 Z M 76.5 62 L 62.5 62 C 62.222656 62 62 61.777344 62 61.5 C 62 61.222656 62.222656 61 62.5 61 L 76.5 61 C 76.777344 61 77 61.222656 77 61.5 C 77 61.777344 76.777344 62 76.5 62 Z M 80.5 62 L 78.5 62 C 78.222656 62 78 61.777344 78 61.5 C 78 61.222656 78.222656 61 78.5 61 L 80.5 61 C 80.777344 61 81 61.222656 81 61.5 C 81 61.777344 80.777344 62 80.5 62 Z M 83.5 62 L 82.5 62 C 82.222656 62 82 61.777344 82 61.5 C 82 61.222656 82.222656 61 82.5 61 L 83.5 61 C 83.777344 61 84 61.222656 84 61.5 C 84 61.777344 83.777344 62 83.5 62 Z M 83.5 62 "/>
</g>
</svg>
