<?xml version="1.0" encoding="UTF-8"?>
<svg xmlns="http://www.w3.org/2000/svg" xmlns:xlink="http://www.w3.org/1999/xlink" width="100pt" height="100pt" viewBox="0 0 100 100" version="1.1">
<g id="surface6924">
<path style=" stroke:none;fill-rule:nonzero;fill:rgb(80%,67.45098%,58.039216%);fill-opacity:1;" d="M 29.5 67 C 27.015625 67 25 69.015625 25 71.5 C 25 73.984375 27.015625 76 29.5 76 C 31.984375 76 34 73.984375 34 71.5 C 34 69.015625 31.984375 67 29.5 67 Z M 29.5 67 "/>
<path style=" stroke:none;fill-rule:nonzero;fill:rgb(12.156863%,12.941176%,16.862745%);fill-opacity:1;" d="M 29.5 77 C 26.46875 77 24 74.53125 24 71.5 C 24 68.46875 26.46875 66 29.5 66 C 32.53125 66 35 68.46875 35 71.5 C 35 74.53125 32.53125 77 29.5 77 Z M 29.5 68 C 27.570312 68 26 69.570312 26 71.5 C 26 73.429688 27.570312 75 29.5 75 C 31.429688 75 33 73.429688 33 71.5 C 33 69.570312 31.429688 68 29.5 68 Z M 29.5 68 "/>
<path style=" stroke:none;fill-rule:nonzero;fill:rgb(80%,67.45098%,58.039216%);fill-opacity:1;" d="M 37.5 71 C 35.015625 71 33 73.015625 33 75.5 C 33 77.984375 35.015625 80 37.5 80 C 39.984375 80 42 77.984375 42 75.5 C 42 73.015625 39.984375 71 37.5 71 Z M 37.5 71 "/>
<path style=" stroke:none;fill-rule:nonzero;fill:rgb(12.156863%,12.941176%,16.862745%);fill-opacity:1;" d="M 37.5 81 C 34.46875 81 32 78.53125 32 75.5 C 32 72.46875 34.46875 70 37.5 70 C 40.53125 70 43 72.46875 43 75.5 C 43 78.53125 40.53125 81 37.5 81 Z M 37.5 72 C 35.570312 72 34 73.570312 34 75.5 C 34 77.429688 35.570312 79 37.5 79 C 39.429688 79 41 77.429688 41 75.5 C 41 73.570312 39.429688 72 37.5 72 Z M 37.5 72 "/>
<path style=" stroke:none;fill-rule:nonzero;fill:rgb(80%,67.45098%,58.039216%);fill-opacity:1;" d="M 46.5 73 C 44.015625 73 42 75.015625 42 77.5 C 42 79.984375 44.015625 82 46.5 82 C 48.984375 82 51 79.984375 51 77.5 C 51 75.015625 48.984375 73 46.5 73 Z M 46.5 73 "/>
<path style=" stroke:none;fill-rule:nonzero;fill:rgb(12.156863%,12.941176%,16.862745%);fill-opacity:1;" d="M 46.5 83 C 43.46875 83 41 80.53125 41 77.5 C 41 74.46875 43.46875 72 46.5 72 C 49.53125 72 52 74.46875 52 77.5 C 52 80.53125 49.53125 83 46.5 83 Z M 46.5 74 C 44.570312 74 43 75.570312 43 77.5 C 43 79.429688 44.570312 81 46.5 81 C 48.429688 81 50 79.429688 50 77.5 C 50 75.570312 48.429688 74 46.5 74 Z M 46.5 74 "/>
<path style=" stroke:none;fill-rule:nonzero;fill:rgb(91.764706%,83.921569%,78.039216%);fill-opacity:1;" d="M 88 78 L 50.3125 78 L 26.652344 70.816406 C 23.992188 70.070312 22.441406 67.3125 23.183594 64.652344 L 19.832031 62.3125 C 18.0625 64.265625 14.980469 64.300781 13.160156 62.308594 C 11.578125 60.574219 11.714844 57.867188 13.292969 56.128906 L 29.910156 37.804688 C 30.949219 36.65625 32.4375 36 33.984375 36 L 53.058594 36 C 56.082031 36 58.996094 37.140625 61.214844 39.199219 L 77.976562 54.734375 C 78.160156 54.90625 78.40625 55 78.65625 55 L 88 55 "/>
<path style=" stroke:none;fill-rule:nonzero;fill:rgb(12.156863%,12.941176%,16.862745%);fill-opacity:1;" d="M 16.578125 64.808594 C 14.996094 64.808594 13.480469 64.144531 12.421875 62.984375 C 10.539062 60.917969 10.597656 57.609375 12.554688 55.453125 L 29.171875 37.132812 C 30.398438 35.777344 32.152344 35 33.984375 35 L 53.058594 35 C 56.34375 35 59.484375 36.230469 61.894531 38.464844 L 78.65625 54 L 88 54 C 88.554688 54 89 54.449219 89 55 C 89 55.550781 88.554688 56 88 56 L 78.65625 56 C 78.152344 56 77.671875 55.8125 77.296875 55.46875 L 60.535156 39.933594 C 58.496094 38.039062 55.839844 37 53.058594 37 L 33.984375 37 C 32.714844 37 31.503906 37.539062 30.652344 38.476562 L 14.03125 56.800781 C 12.761719 58.199219 12.703125 60.324219 13.902344 61.636719 C 14.582031 62.382812 15.558594 62.808594 16.578125 62.808594 C 16.582031 62.808594 16.585938 62.808594 16.585938 62.808594 C 17.585938 62.808594 18.527344 62.394531 19.175781 61.679688 C 19.546875 61.269531 20.179688 61.238281 20.589844 61.609375 C 21 61.980469 21.027344 62.613281 20.660156 63.023438 C 19.632812 64.15625 18.148438 64.808594 16.589844 64.808594 C 16.585938 64.808594 16.582031 64.808594 16.578125 64.808594 Z M 16.578125 64.808594 "/>
<path style=" stroke:none;fill-rule:nonzero;fill:rgb(63.137255%,82.745098%,63.529412%);fill-opacity:1;" d="M 16.828125 65.003906 C 16.25 65.640625 15.792969 66.378906 15.484375 67.183594 L 11.5 77.5 L 21.425781 72.601562 C 22.214844 72.214844 22.921875 71.679688 23.515625 71.027344 L 43.277344 49.230469 L 36.613281 43.183594 Z M 16.828125 65.003906 "/>
<path style=" stroke:none;fill-rule:nonzero;fill:rgb(80%,67.45098%,58.039216%);fill-opacity:1;" d="M 45.953125 46.296875 L 33.175781 60.320312 C 33.546875 60.347656 33.9375 60.371094 34.359375 60.398438 C 38.203125 60.652344 43.464844 61 44 61 C 48.484375 61 52 58.363281 52 55 C 52 52.371094 48.070312 48.234375 45.953125 46.296875 Z M 45.953125 46.296875 "/>
<path style=" stroke:none;fill-rule:nonzero;fill:rgb(37.647059%,74.509804%,57.254902%);fill-opacity:1;" d="M 65.03125 18.671875 C 63.195312 17 60.347656 17.132812 58.675781 18.96875 L 39.605469 39.898438 L 46.273438 45.945312 L 65.324219 25.03125 C 67 23.191406 66.867188 20.347656 65.03125 18.671875 Z M 65.03125 18.671875 "/>
<path style=" stroke:none;fill-rule:nonzero;fill:rgb(99.607843%,96.470588%,66.666667%);fill-opacity:1;" d="M 36.613281 43.183594 L 43.277344 49.230469 L 46.273438 45.945312 L 39.605469 39.898438 Z M 36.613281 43.183594 "/>
<path style=" stroke:none;fill-rule:nonzero;fill:rgb(12.156863%,12.941176%,16.862745%);fill-opacity:1;" d="M 40.308594 33 C 40.1875 33 40.070312 32.957031 39.972656 32.867188 C 39.769531 32.683594 39.753906 32.367188 39.9375 32.164062 L 51.296875 19.640625 C 53.148438 17.597656 56.316406 17.445312 58.359375 19.296875 C 58.5625 19.480469 58.578125 19.796875 58.394531 20.003906 C 58.207031 20.207031 57.890625 20.222656 57.6875 20.035156 C 56.054688 18.558594 53.519531 18.679688 52.039062 20.3125 L 40.679688 32.835938 C 40.578125 32.945312 40.445312 33 40.308594 33 Z M 13.519531 72.097656 L 16.644531 74.933594 L 11.5 77.5 Z M 43.617188 49.359375 C 43.496094 49.359375 43.378906 49.316406 43.28125 49.230469 L 36.628906 43.199219 C 36.425781 43.011719 36.410156 42.695312 36.597656 42.492188 C 36.78125 42.285156 37.097656 42.273438 37.300781 42.457031 L 43.953125 48.488281 C 44.15625 48.675781 44.175781 48.992188 43.988281 49.195312 C 43.890625 49.304688 43.753906 49.359375 43.617188 49.359375 Z M 45.933594 46.8125 C 45.8125 46.8125 45.691406 46.769531 45.597656 46.679688 L 38.929688 40.636719 C 38.726562 40.449219 38.710938 40.132812 38.894531 39.929688 C 39.082031 39.726562 39.398438 39.710938 39.601562 39.894531 L 46.269531 45.941406 C 46.472656 46.125 46.488281 46.441406 46.300781 46.648438 C 46.203125 46.757812 46.066406 46.8125 45.933594 46.8125 Z M 45.933594 46.8125 "/>
<path style=" stroke:none;fill-rule:nonzero;fill:rgb(12.156863%,12.941176%,16.862745%);fill-opacity:1;" d="M 11.5 78 C 11.378906 78 11.257812 77.953125 11.164062 77.867188 C 11.011719 77.730469 10.960938 77.511719 11.03125 77.320312 L 15.015625 67.003906 C 15.351562 66.140625 15.835938 65.355469 16.457031 64.667969 L 58.304688 18.632812 C 60.164062 16.59375 63.328125 16.449219 65.367188 18.304688 C 66.351562 19.203125 66.929688 20.433594 66.992188 21.769531 C 67.054688 23.101562 66.59375 24.378906 65.695312 25.367188 L 23.886719 71.363281 C 23.246094 72.066406 22.496094 72.632812 21.648438 73.050781 L 11.722656 77.949219 C 11.652344 77.984375 11.574219 78 11.5 78 Z M 62.003906 18.003906 C 60.914062 18.003906 59.832031 18.441406 59.042969 19.304688 L 17.199219 65.339844 C 16.660156 65.933594 16.238281 66.613281 15.949219 67.363281 L 12.429688 76.484375 L 21.203125 72.152344 C 21.9375 71.789062 22.59375 71.300781 23.144531 70.691406 L 64.957031 24.691406 C 65.675781 23.902344 66.046875 22.878906 65.996094 21.8125 C 65.945312 20.746094 65.484375 19.761719 64.691406 19.042969 C 63.929688 18.347656 62.964844 18.003906 62.003906 18.003906 Z M 62.003906 18.003906 "/>
<path style=" stroke:none;fill-rule:nonzero;fill:rgb(91.764706%,83.921569%,78.039216%);fill-opacity:1;" d="M 50.3125 78 L 26.652344 70.8125 C 23.992188 70.070312 22.441406 67.308594 23.183594 64.652344 C 23.804688 62.441406 25.816406 60.996094 28 60.996094 C 28.574219 60.996094 43 62 44 62 "/>
<path style=" stroke:none;fill-rule:nonzero;fill:rgb(12.156863%,12.941176%,16.862745%);fill-opacity:1;" d="M 88 79 L 50.164062 79 L 50.023438 78.957031 L 26.359375 71.773438 C 24.839844 71.347656 23.554688 70.339844 22.769531 68.941406 C 21.984375 67.546875 21.789062 65.925781 22.222656 64.382812 C 22.945312 61.800781 25.320312 60 28 60 C 28.257812 60 30.039062 60.113281 34.359375 60.398438 C 38.203125 60.652344 43.464844 61 44 61 C 48.484375 61 52 58.363281 52 55 C 52 53.53125 50.6875 51.285156 48.3125 48.671875 C 47.9375 48.265625 47.96875 47.632812 48.375 47.261719 C 48.785156 46.886719 49.417969 46.917969 49.789062 47.324219 C 52.582031 50.394531 54 52.976562 54 55 C 54 59.484375 49.605469 63 44 63 C 43.441406 63 39.597656 62.75 34.230469 62.394531 C 31.304688 62.203125 28.277344 62.003906 27.996094 62 C 26.214844 62 24.628906 63.203125 24.148438 64.921875 C 23.859375 65.949219 23.988281 67.03125 24.511719 67.960938 C 25.035156 68.894531 25.890625 69.566406 26.921875 69.851562 L 50.460938 77 L 88 77 C 88.554688 77 89 77.449219 89 78 C 89 78.550781 88.554688 79 88 79 Z M 88 79 "/>
<path style=" stroke:none;fill-rule:nonzero;fill:rgb(12.156863%,12.941176%,16.862745%);fill-opacity:1;" d="M 29.75 69 C 29.679688 69 29.609375 68.984375 29.539062 68.953125 C 29.289062 68.839844 29.179688 68.542969 29.296875 68.289062 C 29.304688 68.277344 30 66.726562 30 64.5 C 30 64.222656 30.222656 64 30.5 64 C 30.777344 64 31 64.222656 31 64.5 C 31 66.957031 30.234375 68.640625 30.203125 68.710938 C 30.121094 68.890625 29.9375 69 29.75 69 Z M 45.5 72.335938 C 45.453125 72.335938 45.402344 72.328125 45.355469 72.3125 L 42.355469 71.402344 C 42.089844 71.320312 41.941406 71.042969 42.019531 70.777344 C 42.101562 70.515625 42.378906 70.363281 42.644531 70.445312 L 45.644531 71.355469 C 45.910156 71.4375 46.058594 71.714844 45.976562 71.980469 C 45.914062 72.195312 45.714844 72.335938 45.5 72.335938 Z M 76.5 74 L 50.980469 74 C 50.933594 74 50.882812 73.992188 50.835938 73.980469 L 48.355469 73.226562 C 48.089844 73.144531 47.941406 72.867188 48.019531 72.601562 C 48.101562 72.339844 48.378906 72.1875 48.644531 72.269531 L 51.054688 73 L 76.5 73 C 76.777344 73 77 73.222656 77 73.5 C 77 73.777344 76.777344 74 76.5 74 Z M 85.5 74 L 80.5 74 C 80.222656 74 80 73.777344 80 73.5 C 80 73.222656 80.222656 73 80.5 73 L 85.5 73 C 85.777344 73 86 73.222656 86 73.5 C 86 73.777344 85.777344 74 85.5 74 Z M 85.5 74 "/>
</g>
</svg>
