<?xml version="1.0" encoding="UTF-8"?>
<svg xmlns="http://www.w3.org/2000/svg" xmlns:xlink="http://www.w3.org/1999/xlink" width="100pt" height="100pt" viewBox="0 0 100 100" version="1.1">
<g id="surface6414">
<path style=" stroke:none;fill-rule:nonzero;fill:rgb(91.764706%,83.921569%,78.039216%);fill-opacity:1;" d="M 68 68 C 63.675781 66.378906 60.8125 65.339844 59.09375 64.730469 C 58.808594 64.628906 58.554688 64.539062 58.328125 64.460938 C 57.527344 64.179688 57 63.425781 57 62.574219 L 57 59.539062 C 61.441406 56.652344 65 51.996094 65 50 C 65 49 65 46 65 46 C 67 46 67.382812 44.101562 68 42 C 68.570312 40.0625 69 38 69 37 C 69 35.125 65.742188 34.5 65.742188 34.5 L 65.621094 34.5 C 65.589844 32.75 65.296875 24.59375 62.75 19.5 C 62.75 19.5 56.5 17.5 50 17.5 C 43.5 17.5 37.25 19.5 37.25 19.5 C 34.699219 24.605469 34.320312 32.78125 34.261719 34.511719 C 33.507812 34.609375 31 35.277344 31 37 C 31 38 31.429688 40.066406 32 42 C 32.617188 44.101562 33 46 35 46 C 35 46 35 49 35 50 C 35 52 38.558594 56.652344 43 59.542969 L 43 62.574219 C 43 63.425781 42.472656 64.179688 41.671875 64.460938 C 41.445312 64.539062 41.191406 64.628906 40.90625 64.730469 C 39.1875 65.339844 36.324219 66.378906 32 68 C 24 71 24 79 24 79 L 76 79 C 76 79 76 71 68 68 Z M 68 68 "/>
<path style=" stroke:none;fill-rule:nonzero;fill:rgb(47.058824%,80.392157%,83.137255%);fill-opacity:1;" d="M 68 68 C 63.675781 66.378906 60.8125 65.339844 59.09375 64.730469 C 58.84375 64.640625 58.628906 64.566406 58.425781 64.492188 C 57.179688 65.058594 54.429688 66 50 66 C 45.59375 66 42.835938 65.054688 41.578125 64.492188 C 41.375 64.566406 41.15625 64.640625 40.90625 64.730469 C 39.1875 65.339844 36.324219 66.378906 32 68 C 24 71 24 79 24 79 L 76 79 C 76 79 76 71 68 68 Z M 68 68 "/>
<path style=" stroke:none;fill-rule:nonzero;fill:rgb(69.019608%,45.490196%,32.941176%);fill-opacity:1;" d="M 50.5 10.5 C 41.5 10.5 38 15.25 37.5 16.5 C 33.539062 18.179688 30.5 22.5 30.5 27.5 C 30.5 35.5 34.5 38.5 34.5 38.5 C 34.5 29.5 39.5 24.5 39.5 21.5 C 41.304688 24.355469 46.234375 26.5 51.5 26.5 C 56.625 26.5 59.125 25.875 61.5 24.5 C 64.5 28.5 65.5 38.5 65.5 38.5 C 65.5 38.5 68.5 35.5 68.5 29.5 C 68.5 24.761719 67.097656 24.199219 65.5 21.5 C 67 20.5 67.5 18.75 67.5 17.5 C 63 17.5 60.5 10.5 50.5 10.5 Z M 50.5 10.5 "/>
<path style=" stroke:none;fill-rule:nonzero;fill:rgb(12.156863%,12.941176%,16.862745%);fill-opacity:1;" d="M 34.5 39 C 34.394531 39 34.289062 38.964844 34.199219 38.898438 C 34.027344 38.769531 30 35.65625 30 27.5 C 30 22.570312 32.855469 18.023438 37.121094 16.117188 C 37.988281 14.335938 41.902344 10 50.5 10 C 56.652344 10 60.023438 12.5625 62.734375 14.621094 C 64.480469 15.949219 65.863281 17 67.5 17 C 67.777344 17 68 17.222656 68 17.5 C 68 18.800781 67.507812 20.511719 66.164062 21.628906 C 66.441406 22.070312 66.710938 22.453125 66.976562 22.824219 C 68.105469 24.433594 69 25.703125 69 29.5 C 69 35.636719 65.980469 38.726562 65.855469 38.855469 C 65.71875 38.988281 65.511719 39.035156 65.332031 38.972656 C 65.152344 38.90625 65.023438 38.742188 65.003906 38.550781 C 64.992188 38.453125 64.039062 29.214844 61.351562 25.15625 C 58.839844 26.511719 56.183594 27 51.5 27 C 46.707031 27 42.117188 25.285156 39.808594 22.722656 C 39.542969 23.648438 39.027344 24.695312 38.429688 25.914062 C 36.980469 28.867188 35 32.910156 35 38.5 C 35 38.6875 34.894531 38.863281 34.722656 38.945312 C 34.652344 38.980469 34.574219 39 34.5 39 Z M 50.5 11 C 40.679688 11 37.988281 16.628906 37.964844 16.6875 C 37.914062 16.808594 37.816406 16.910156 37.695312 16.960938 C 33.691406 18.660156 31 22.894531 31 27.5 C 31 32.9375 32.917969 36 34.027344 37.316406 C 34.277344 32.109375 36.144531 28.304688 37.53125 25.476562 C 38.351562 23.804688 39 22.480469 39 21.5 C 39 21.277344 39.148438 21.082031 39.359375 21.019531 C 39.578125 20.964844 39.804688 21.042969 39.921875 21.234375 C 41.667969 23.996094 46.535156 26 51.5 26 C 56.863281 26 59.136719 25.289062 61.25 24.066406 C 61.472656 23.941406 61.75 24 61.898438 24.199219 C 64.347656 27.464844 65.480469 34.402344 65.851562 37.230469 C 66.695312 35.957031 68 33.367188 68 29.5 C 68 26.019531 67.226562 24.921875 66.15625 23.402344 C 65.824219 22.929688 65.449219 22.398438 65.070312 21.753906 C 64.933594 21.527344 65.003906 21.230469 65.222656 21.085938 C 66.363281 20.324219 66.863281 19.054688 66.976562 17.972656 C 65.238281 17.785156 63.785156 16.679688 62.128906 15.417969 C 59.539062 13.449219 56.316406 11 50.5 11 Z M 50.5 11 "/>
<path style=" stroke:none;fill-rule:nonzero;fill:rgb(12.156863%,12.941176%,16.862745%);fill-opacity:1;" d="M 50 50 C 48.023438 50 47.136719 48.847656 47.101562 48.800781 C 46.933594 48.578125 46.980469 48.265625 47.199219 48.101562 C 47.421875 47.9375 47.730469 47.980469 47.898438 48.195312 C 47.929688 48.238281 48.554688 49 50 49 C 51.453125 49 52.078125 48.230469 52.105469 48.195312 C 52.273438 47.980469 52.585938 47.9375 52.804688 48.105469 C 53.019531 48.273438 53.066406 48.582031 52.898438 48.800781 C 52.863281 48.847656 51.976562 50 50 50 Z M 50 50 "/>
<path style=" stroke:none;fill-rule:nonzero;fill:rgb(12.156863%,12.941176%,16.862745%);fill-opacity:1;" d="M 50 62 C 47.894531 62 45.472656 61.148438 43 59.542969 L 43.546875 58.703125 C 45.855469 60.207031 48.085938 61 50 61 C 51.914062 61 54.144531 60.207031 56.453125 58.703125 L 57 59.542969 C 54.527344 61.148438 52.105469 62 50 62 Z M 50 62 "/>
<path style=" stroke:none;fill-rule:nonzero;fill:rgb(12.156863%,12.941176%,16.862745%);fill-opacity:1;" d="M 76 80 L 24 80 C 23.449219 80 23 79.554688 23 79 C 23 78.914062 23.097656 70.269531 31.648438 67.0625 C 36.113281 65.390625 38.96875 64.355469 40.574219 63.785156 L 41.332031 63.519531 C 41.660156 63.402344 41.902344 63.128906 41.972656 62.800781 C 41.992188 62.710938 42 62.640625 42 62.578125 L 42 60.074219 C 37.757812 57.160156 34 52.464844 34 50 L 34 46.867188 C 32.21875 46.359375 31.671875 44.464844 31.179688 42.761719 L 31.039062 42.285156 C 30.5625 40.65625 30 38.296875 30 37 C 30 36.03125 30.65625 35.234375 31.953125 34.632812 L 32.796875 36.445312 C 32.089844 36.773438 32 37.011719 32 37.011719 C 32 37.851562 32.402344 39.835938 32.960938 41.71875 L 33.101562 42.207031 C 33.726562 44.371094 34.050781 45 35 45 C 35.550781 45 36 45.445312 36 46 L 36 50 C 36 51.492188 39.238281 55.898438 43.546875 58.699219 C 43.828125 58.886719 44 59.199219 44 59.539062 L 44 62.578125 C 44 62.785156 43.976562 62.984375 43.929688 63.21875 C 43.714844 64.226562 42.976562 65.0625 42 65.40625 L 41.246094 65.671875 C 39.644531 66.242188 36.800781 67.269531 32.351562 68.9375 C 26.710938 71.050781 25.398438 75.902344 25.09375 78 L 74.914062 78 C 74.625 75.898438 73.339844 71.070312 67.648438 68.9375 C 63.199219 67.269531 60.355469 66.242188 58.753906 65.671875 L 57.992188 65.398438 C 57.023438 65.0625 56.304688 64.253906 56.074219 63.242188 C 56.023438 63.003906 56 62.785156 56 62.578125 L 56 59.539062 C 56 59.199219 56.171875 58.886719 56.453125 58.699219 C 60.761719 55.898438 64 51.492188 64 50 L 64 46 C 64 45.445312 64.449219 45 65 45 C 65.949219 45 66.273438 44.371094 66.898438 42.207031 L 67.039062 41.71875 C 67.597656 39.835938 68 37.851562 68 37 C 67.996094 37 67.882812 36.742188 67.097656 36.398438 L 67.902344 34.566406 C 69.292969 35.179688 70 35.996094 70 37 C 70 38.296875 69.4375 40.65625 68.960938 42.28125 L 68.820312 42.761719 C 68.328125 44.464844 67.78125 46.359375 66 46.867188 L 66 50 C 66 52.464844 62.242188 57.160156 58 60.074219 L 58 62.578125 C 58 62.644531 58.011719 62.726562 58.027344 62.808594 C 58.101562 63.136719 58.339844 63.402344 58.660156 63.515625 L 59.425781 63.785156 C 61.035156 64.355469 63.886719 65.390625 68.351562 67.0625 C 76.902344 70.269531 77 78.914062 77 79 C 77 79.554688 76.550781 80 76 80 Z M 76 80 "/>
<path style=" stroke:none;fill-rule:nonzero;fill:rgb(12.156863%,12.941176%,16.862745%);fill-opacity:1;" d="M 50 55 C 45.304688 55 42.277344 52.769531 42.148438 52.675781 C 41.984375 52.550781 41.949219 52.316406 42.074219 52.152344 C 42.199219 51.984375 42.433594 51.949219 42.601562 52.074219 C 42.628906 52.097656 45.566406 54 50 54 C 54.433594 54 57.371094 52.097656 57.398438 52.074219 C 57.566406 51.949219 57.800781 51.984375 57.925781 52.152344 C 58.050781 52.316406 58.015625 52.550781 57.851562 52.675781 C 57.722656 52.769531 54.695312 55 50 55 Z M 50 55 "/>
<path style=" stroke:none;fill-rule:nonzero;fill:rgb(12.156863%,12.941176%,16.862745%);fill-opacity:1;" d="M 43 35 C 42.199219 35 41.519531 35.589844 41.195312 36.433594 C 41.378906 36.179688 41.660156 36 42 36 C 42.550781 36 43 36.449219 43 37 C 43 37.550781 42.550781 38 42 38 C 41.496094 38 41.101562 37.625 41.027344 37.144531 C 41.015625 37.261719 41 37.378906 41 37.5 C 41 38.882812 41.894531 40 43 40 C 44.105469 40 45 38.882812 45 37.5 C 45 36.117188 44.105469 35 43 35 Z M 43 35 "/>
<path style=" stroke:none;fill-rule:nonzero;fill:rgb(12.156863%,12.941176%,16.862745%);fill-opacity:1;" d="M 57 35 C 56.199219 35 55.519531 35.589844 55.195312 36.433594 C 55.378906 36.179688 55.660156 36 56 36 C 56.550781 36 57 36.449219 57 37 C 57 37.550781 56.550781 38 56 38 C 55.496094 38 55.101562 37.625 55.027344 37.144531 C 55.015625 37.261719 55 37.378906 55 37.5 C 55 38.882812 55.894531 40 57 40 C 58.105469 40 59 38.882812 59 37.5 C 59 36.117188 58.105469 35 57 35 Z M 57 35 "/>
<path style=" stroke:none;fill-rule:nonzero;fill:rgb(12.156863%,12.941176%,16.862745%);fill-opacity:1;" d="M 60.3125 32.75 L 61 31.441406 C 59.722656 31.144531 58.359375 30.996094 57 31 C 55.269531 31.003906 53.542969 31.246094 52 31.722656 L 52.863281 33 C 54.132812 32.582031 55.566406 32.378906 57 32.375 C 58.128906 32.371094 59.257812 32.492188 60.3125 32.75 Z M 60.3125 32.75 "/>
<path style=" stroke:none;fill-rule:nonzero;fill:rgb(12.156863%,12.941176%,16.862745%);fill-opacity:1;" d="M 43 32.375 C 44.433594 32.378906 45.867188 32.582031 47.136719 33 L 48 31.722656 C 46.457031 31.246094 44.730469 31.003906 43 31 C 41.640625 30.996094 40.277344 31.144531 39 31.441406 L 39.6875 32.75 C 40.742188 32.492188 41.871094 32.371094 43 32.375 Z M 43 32.375 "/>
<path style=" stroke:none;fill-rule:nonzero;fill:rgb(12.156863%,12.941176%,16.862745%);fill-opacity:1;" d="M 76 80 L 24 80 C 23.449219 80 23 79.554688 23 79 C 23 78.914062 23.097656 70.269531 31.648438 67.0625 C 36.058594 65.410156 38.933594 64.371094 40.570312 63.789062 L 41.339844 63.515625 C 41.734375 63.378906 42 63 42 62.574219 L 42 59.542969 C 42 58.988281 42.449219 58.542969 43 58.542969 C 43.550781 58.542969 44 58.988281 44 59.542969 L 44 62.574219 C 44 63.847656 43.195312 64.984375 42.003906 65.402344 L 41.242188 65.671875 C 39.609375 66.253906 36.742188 67.289062 32.351562 68.9375 C 26.710938 71.050781 25.398438 75.898438 25.089844 78 L 74.914062 78 C 74.625 75.898438 73.339844 71.070312 67.648438 68.9375 C 63.253906 67.289062 60.386719 66.253906 58.757812 65.671875 L 57.992188 65.402344 C 56.804688 64.984375 56 63.847656 56 62.574219 L 56 59.542969 C 56 58.988281 56.449219 58.542969 57 58.542969 C 57.550781 58.542969 58 58.988281 58 59.542969 L 58 62.574219 C 58 63 58.265625 63.378906 58.660156 63.515625 L 59.429688 63.785156 C 61.066406 64.367188 63.945312 65.410156 68.351562 67.0625 C 76.902344 70.269531 77 78.914062 77 79 C 77 79.554688 76.550781 80 76 80 Z M 76 80 "/>
<path style=" stroke:none;fill-rule:nonzero;fill:rgb(12.156863%,12.941176%,16.862745%);fill-opacity:1;" d="M 50 67 C 43.425781 67 40.351562 65 40.222656 64.914062 C 39.992188 64.761719 39.933594 64.453125 40.085938 64.226562 C 40.234375 63.996094 40.546875 63.933594 40.777344 64.082031 C 40.804688 64.101562 43.761719 66 50 66 C 50.515625 66 51.003906 65.984375 51.476562 65.960938 C 51.75 65.9375 51.984375 66.15625 52 66.433594 C 52.015625 66.710938 51.800781 66.945312 51.527344 66.957031 C 51.039062 66.984375 50.535156 67 50 67 Z M 50 67 "/>
<path style=" stroke:none;fill-rule:nonzero;fill:rgb(12.156863%,12.941176%,16.862745%);fill-opacity:1;" d="M 53.5 66.785156 C 53.253906 66.785156 53.035156 66.601562 53.003906 66.347656 C 52.96875 66.074219 53.164062 65.824219 53.4375 65.789062 C 54.101562 65.707031 54.742188 65.597656 55.394531 65.453125 C 55.664062 65.398438 55.929688 65.566406 55.988281 65.839844 C 56.046875 66.109375 55.875 66.375 55.605469 66.433594 C 54.925781 66.578125 54.257812 66.695312 53.5625 66.78125 C 53.542969 66.785156 53.519531 66.785156 53.5 66.785156 Z M 53.5 66.785156 "/>
<path style=" stroke:none;fill-rule:nonzero;fill:rgb(63.921569%,63.921569%,80.392157%);fill-opacity:1;" d="M 80 84 C 65 84 50 89 50 89 C 50 89 35 84 20 84 L 17 48 C 36 48 50 55 50 55 C 50 55 64 48 83 48 Z M 80 84 "/>
<path style=" stroke:none;fill-rule:nonzero;fill:rgb(41.960784%,41.568627%,68.627451%);fill-opacity:1;" d="M 50 55 L 50 89 C 50.007812 88.996094 65.003906 84 80 84 L 83 48 C 64 48 50 55 50 55 Z M 50 55 "/>
<path style=" stroke:none;fill-rule:nonzero;fill:rgb(12.156863%,12.941176%,16.862745%);fill-opacity:1;" d="M 50 90 C 49.894531 90 49.785156 89.980469 49.683594 89.949219 C 49.535156 89.898438 34.65625 85 20 85 C 19.480469 85 19.046875 84.601562 19.003906 84.082031 L 16.003906 48.082031 C 15.980469 47.804688 16.074219 47.527344 16.265625 47.324219 C 16.453125 47.117188 16.722656 47 17 47 C 34.363281 47 47.417969 52.683594 50 53.890625 C 52.582031 52.683594 65.636719 47 83 47 C 83.277344 47 83.546875 47.117188 83.734375 47.324219 C 83.925781 47.527344 84.019531 47.804688 83.996094 48.082031 L 80.996094 84.082031 C 80.953125 84.601562 80.519531 85 80 85 C 65.34375 85 50.464844 89.898438 50.316406 89.949219 C 50.214844 89.980469 50.105469 90 50 90 Z M 20.921875 83.007812 C 34.40625 83.1875 47.789062 87.25 50 87.949219 C 52.210938 87.25 65.59375 83.1875 79.078125 83.007812 L 81.910156 49.007812 C 63.910156 49.265625 50.582031 55.828125 50.445312 55.894531 C 50.164062 56.035156 49.835938 56.035156 49.550781 55.894531 C 49.417969 55.828125 36.0625 49.265625 18.085938 49.007812 Z M 20.921875 83.007812 "/>
<path style=" stroke:none;fill-rule:nonzero;fill:rgb(12.156863%,12.941176%,16.862745%);fill-opacity:1;" d="M 49 55 L 51 55 L 51 89 L 49 89 Z M 49 55 "/>
<path style=" stroke:none;fill-rule:nonzero;fill:rgb(12.156863%,12.941176%,16.862745%);fill-opacity:1;" d="M 54.5 63 C 54.222656 63 54 62.777344 54 62.5 L 54 61.5 C 54 61.222656 54.222656 61 54.5 61 C 54.777344 61 55 61.222656 55 61.5 L 55 62.5 C 55 62.777344 54.777344 63 54.5 63 Z M 54.5 63 "/>
<path style=" stroke:none;fill-rule:nonzero;fill:rgb(12.156863%,12.941176%,16.862745%);fill-opacity:1;" d="M 54.5 67 C 54.222656 67 54 66.777344 54 66.5 L 54 64.5 C 54 64.222656 54.222656 64 54.5 64 C 54.777344 64 55 64.222656 55 64.5 L 55 66.5 C 55 66.777344 54.777344 67 54.5 67 Z M 54.5 67 "/>
<path style=" stroke:none;fill-rule:nonzero;fill:rgb(12.156863%,12.941176%,16.862745%);fill-opacity:1;" d="M 54.5 84 C 54.222656 84 54 83.777344 54 83.5 L 54 68.5 C 54 68.222656 54.222656 68 54.5 68 C 54.777344 68 55 68.222656 55 68.5 L 55 83.5 C 55 83.777344 54.777344 84 54.5 84 Z M 54.5 84 "/>
<path style=" stroke:none;fill-rule:nonzero;fill:rgb(91.764706%,83.921569%,78.039216%);fill-opacity:1;" d="M 81.5 74.5 C 78.1875 74.5 75.5 71.8125 75.5 68.5 C 75.5 65.1875 78.1875 62.5 81.5 62.5 L 83.5 62.5 C 84.605469 62.5 85.5 63.394531 85.5 64.5 L 85.5 72.5 C 85.5 73.605469 84.605469 74.5 83.5 74.5 Z M 81.5 74.5 "/>
<path style=" stroke:none;fill-rule:nonzero;fill:rgb(91.764706%,83.921569%,78.039216%);fill-opacity:1;" d="M 18.5 74.5 C 21.8125 74.5 24.5 71.8125 24.5 68.5 C 24.5 65.1875 21.8125 62.5 18.5 62.5 L 16.5 62.5 C 15.394531 62.5 14.5 63.394531 14.5 64.5 L 14.5 72.5 C 14.5 73.605469 15.394531 74.5 16.5 74.5 Z M 18.5 74.5 "/>
<path style=" stroke:none;fill-rule:nonzero;fill:rgb(12.156863%,12.941176%,16.862745%);fill-opacity:1;" d="M 83.5 75 L 81.5 75 C 77.914062 75 75 72.085938 75 68.5 C 75 64.914062 77.914062 62 81.5 62 L 83.5 62 C 84.878906 62 86 63.121094 86 64.5 L 86 72.5 C 86 73.878906 84.878906 75 83.5 75 Z M 81.5 63 C 78.46875 63 76 65.46875 76 68.5 C 76 71.53125 78.46875 74 81.5 74 L 83.5 74 C 84.328125 74 85 73.328125 85 72.5 L 85 64.5 C 85 63.671875 84.328125 63 83.5 63 Z M 81.5 63 "/>
<path style=" stroke:none;fill-rule:nonzero;fill:rgb(12.156863%,12.941176%,16.862745%);fill-opacity:1;" d="M 18.5 75 L 16.5 75 C 15.121094 75 14 73.878906 14 72.5 L 14 64.5 C 14 63.121094 15.121094 62 16.5 62 L 18.5 62 C 22.085938 62 25 64.914062 25 68.5 C 25 72.085938 22.085938 75 18.5 75 Z M 16.5 63 C 15.671875 63 15 63.671875 15 64.5 L 15 72.5 C 15 73.328125 15.671875 74 16.5 74 L 18.5 74 C 21.53125 74 24 71.53125 24 68.5 C 24 65.46875 21.53125 63 18.5 63 Z M 16.5 63 "/>
</g>
</svg>
